<svg width="35" height="34" viewBox="0 0 35 34" fill="none" xmlns="http://www.w3.org/2000/svg">
<g id="Group">
<path id="Vector" d="M26.345 17.6369V8.1264H8.9884V17.6369H10.4149V9.55301H24.9185V17.6369H26.345Z" fill="#066B4F"/>
<path id="Vector_2" d="M8.74414 19.4916C8.74414 19.891 9.06734 20.2142 9.46677 20.2142H25.8659C26.2643 20.2142 26.5884 19.891 26.5884 19.4916C26.5884 19.0918 26.2643 18.7686 25.8659 18.7686H9.46677C9.06741 18.7686 8.74414 19.0918 8.74414 19.4916Z" fill="#066B4F"/>
<path id="Vector_3" d="M25.4944 20.7464L25.5083 20.7167H24.1096C24.0808 20.7901 24.0501 20.8675 24.0158 20.9553C23.1483 21.468 21.8861 22.2449 20.5115 23.274C20.3583 23.1249 20.2051 22.9786 20.0564 22.8407C19.1722 22.0262 18.3782 21.4132 17.7513 21.0492L17.5804 20.9461L17.4066 21.0492C16.7788 21.4132 15.9857 22.0262 15.1015 22.8407C14.9511 22.9796 14.7978 23.1216 14.6445 23.2717C13.2728 22.2449 12.0125 21.4694 11.1459 20.9572C11.1115 20.869 11.08 20.7901 11.0502 20.7167H9.64966C9.76853 20.9832 10.6815 23.1407 11.4552 26.2864C11.5035 26.4764 11.5509 26.6709 11.5991 26.8651C11.6289 27.0016 11.6595 27.1382 11.6901 27.2783C11.7245 27.4279 11.7551 27.5802 11.7895 27.7334C12.1675 29.5361 12.4665 31.5785 12.5492 33.7197L13.8522 33.6738C13.8429 33.4054 13.8262 33.1453 13.8085 32.8848V32.8806C13.803 32.7966 13.7937 32.7172 13.7882 32.6341C14.1606 31.5646 14.663 30.5583 15.2612 29.6231L15.263 29.6253C15.9401 30.3099 16.5875 31.0487 17.1773 31.8521C16.79 32.4079 16.4324 32.9931 16.1101 33.6014H16.8634C17.0881 33.2002 17.3231 32.8069 17.5804 32.4293C17.8385 32.8069 18.0736 33.2001 18.2983 33.6014H19.0497C18.7274 32.9931 18.3717 32.408 17.9834 31.8521C18.5733 31.0487 19.2215 30.3099 19.8939 29.6253L19.8967 29.6226C20.4938 30.5564 20.9964 31.5618 21.3688 32.6299C21.3632 32.7116 21.3539 32.7901 21.3492 32.8723C21.3316 33.137 21.3139 33.4054 21.3055 33.6738L22.6076 33.7197C22.695 31.5785 22.994 29.5441 23.3674 27.7418V27.7376C23.4018 27.5802 23.4371 27.4279 23.4667 27.2783C23.4974 27.1381 23.5327 27.0016 23.5624 26.8651C23.6061 26.6663 23.6543 26.4764 23.7017 26.2864C23.854 25.654 24.0147 25.0628 24.1754 24.5213C24.5218 23.3348 24.8608 22.3717 25.1125 21.7057C25.2379 21.3709 25.3429 21.1146 25.4115 20.9409C25.4507 20.8541 25.4776 20.7882 25.4944 20.7464ZM15.1628 23.6673C15.3003 23.5373 15.434 23.4138 15.5622 23.2963C16.3386 22.5802 17.0408 22.0336 17.5804 21.6942C18.121 22.0336 18.8222 22.5802 19.5959 23.2963C19.724 23.4138 19.8559 23.5401 19.9924 23.6706C19.5419 24.022 19.0841 24.3986 18.6271 24.8027C18.2761 25.1134 17.9259 25.4407 17.5795 25.782C17.234 25.4407 16.8839 25.1133 16.5319 24.8027C16.074 24.3982 15.6143 24.0207 15.1629 23.6682L15.1628 23.6673ZM11.7069 22.5078V22.5036C11.6354 22.2965 11.5676 22.1042 11.5026 21.9217C12.2632 22.3889 13.1911 22.9926 14.183 23.7314C13.7428 24.1744 13.2942 24.6574 12.8409 25.1784C12.7583 25.2759 12.6756 25.3799 12.5921 25.4789C12.2948 24.3295 11.9828 23.3227 11.7069 22.5078ZM13.6592 31.1986C13.5543 30.2671 13.4205 29.3695 13.2654 28.5146C13.2124 28.2266 13.1567 27.9452 13.0982 27.6671C13.2161 27.7627 13.3341 27.8557 13.452 27.956C13.635 28.1101 13.8217 28.268 14.0046 28.431C14.2656 28.6632 14.5266 28.9038 14.7876 29.1517C14.3641 29.799 13.988 30.484 13.6592 31.1986ZM15.1545 28.612C14.9222 28.3901 14.6901 28.1732 14.4524 27.9675C14.0539 27.6113 13.6518 27.2793 13.257 26.9672C13.1317 26.8655 13.0081 26.7754 12.8836 26.6802C12.8641 26.5966 12.8465 26.5093 12.827 26.4276C12.814 26.3691 12.7991 26.3153 12.7861 26.2576L12.8038 26.2349C12.879 26.1406 12.958 26.0491 13.0323 25.9581C13.5979 25.2894 14.1579 24.6728 14.7021 24.127C15.1563 24.4809 15.6188 24.8589 16.0795 25.2666C16.4306 25.576 16.7798 25.9033 17.1234 26.2432C16.4269 26.9696 15.7581 27.7595 15.1545 28.612ZM17.5804 31.298C16.9739 30.4992 16.3136 29.7554 15.6329 29.075L15.6291 29.0727C16.2217 28.222 16.8848 27.433 17.5795 26.7063C18.2742 27.4325 18.9364 28.221 19.5281 29.0713C18.8472 29.7554 18.1868 30.4955 17.5804 31.298ZM21.8917 28.5191C21.7366 29.3727 21.6038 30.2698 21.4989 31.1967C21.1701 30.483 20.7948 29.7999 20.3723 29.1535C20.6342 28.9046 20.8952 28.664 21.1571 28.4308C21.34 28.2678 21.523 28.1099 21.705 27.9595C21.823 27.8596 21.9409 27.7658 22.0579 27.6701C22.0013 27.9488 21.9446 28.2276 21.8917 28.5191ZM22.3301 26.4313C22.3105 26.5112 22.2938 26.5985 22.2744 26.6802C22.1499 26.7754 22.0254 26.8683 21.9001 26.9672C21.5062 27.2831 21.1032 27.615 20.7048 27.9675C20.467 28.1737 20.2348 28.3906 20.0026 28.6079L20.0017 28.6089C19.3989 27.7572 18.7311 26.9682 18.0346 26.2433C18.3791 25.9035 18.7274 25.576 19.0785 25.2668C19.5401 24.86 20.0017 24.481 20.4558 24.1272C20.9954 24.6738 21.5601 25.29 22.1247 25.9624C22.2083 26.0599 22.2892 26.1616 22.3718 26.2624C22.358 26.3199 22.344 26.3737 22.3301 26.4313ZM23.4501 22.5036V22.5078C23.1752 23.326 22.8641 24.3305 22.5669 25.4821C22.4833 25.3837 22.4016 25.2824 22.3162 25.1868C21.8675 24.6648 21.4153 24.179 20.975 23.7319C21.966 22.993 22.8949 22.3898 23.6555 21.9217C23.5895 22.1042 23.5217 22.2974 23.4501 22.5036Z" fill="#066B4F"/>
<path id="Vector_4" d="M0.666748 0.280212V26.1963H9.96083C9.72961 25.3 9.49181 24.5004 9.27167 23.8187H3.04436V2.65789H32.2891V23.8187H25.8845C25.7748 24.1577 25.6606 24.5246 25.5445 24.9216C25.42 25.3409 25.3114 25.7691 25.2027 26.1963H34.6667V25.0075V0.280212H0.666748Z" fill="#066B4F"/>
</g>
</svg>
