<svg width="51" height="46" viewBox="0 0 51 46" fill="none" xmlns="http://www.w3.org/2000/svg">
<path fill-rule="evenodd" clip-rule="evenodd" d="M0.687378 8.13672C0.687378 3.99459 4.04525 0.636719 8.18738 0.636719H43.1874C47.3296 0.636719 50.6874 3.99459 50.6874 8.13672V30.6367C50.6874 34.779 47.3296 38.1367 43.1874 38.1367H28.1874V40.6367H33.1874C34.5681 40.6367 35.6874 41.756 35.6874 43.1367C35.6874 44.5175 34.5681 45.6367 33.1874 45.6367H18.1874C16.8067 45.6367 15.6874 44.5175 15.6874 43.1367C15.6874 41.756 16.8067 40.6367 18.1874 40.6367H23.1874V38.1367H8.18738C4.04525 38.1367 0.687378 34.779 0.687378 30.6367V8.13672ZM8.18738 5.63672C6.80668 5.63672 5.68738 6.75602 5.68738 8.13672V30.6367C5.68738 32.0175 6.80668 33.1367 8.18738 33.1367H43.1874C44.5681 33.1367 45.6874 32.0175 45.6874 30.6367V8.13672C45.6874 6.75602 44.5681 5.63672 43.1874 5.63672H8.18738Z" fill="#066B4F"/>
</svg>
