<svg width="25" height="32" viewBox="0 0 25 32" fill="none" xmlns="http://www.w3.org/2000/svg">
<g id="ic-sport-winner">
<path id="Vector" d="M12.3333 30.7333C18.5926 30.7333 23.6667 25.6592 23.6667 19.4C23.6667 13.1408 18.5926 8.06665 12.3333 8.06665C6.07411 8.06665 1 13.1408 1 19.4C1 25.6592 6.07411 30.7333 12.3333 30.7333Z" stroke="#066B4F" stroke-width="2" stroke-linecap="round" stroke-linejoin="round"/>
<path id="Vector_2" d="M8.49413 8.73245L4.24413 3.56162C4.07872 3.35231 3.97578 3.10054 3.94715 2.83529C3.91852 2.57005 3.96537 2.30211 4.0823 2.06232C4.19924 1.82253 4.38151 1.62063 4.60813 1.47986C4.83475 1.3391 5.09652 1.26518 5.3633 1.26662H19.3033C19.5689 1.26784 19.8288 1.34369 20.0533 1.48551C20.2778 1.62733 20.458 1.82941 20.5732 2.0687C20.6884 2.30799 20.734 2.57484 20.7049 2.83882C20.6757 3.10279 20.573 3.35325 20.4083 3.56162L16.1583 8.73245" stroke="#066B4F" stroke-width="2" stroke-linecap="round" stroke-linejoin="round"/>
<path id="Vector_3" d="M9.48584 17.2892L12.73 13.5917V24.925" stroke="#066B4F" stroke-width="2" stroke-linecap="round" stroke-linejoin="round"/>
</g>
</svg>
