<svg xmlns="http://www.w3.org/2000/svg" viewBox="0 0 500 500"><g id="freepik--background-simple--inject-44"><path d="M434.09,140.22c-15.46-10.52-48.7-15.91-67.42-9.7-23.91,7.94-23.07,25.36-40.47,36.14-47,29.09-94.71,9.53-144.38-3-110.07-27.81-179,78.1-70.9,143.21,65,39.13,201.5,67.72,216.87-36,6.65-44.84-17.34-48.25,38.4-58C388.19,209,504.13,187.89,434.09,140.22Z" style="fill:#03A879"></path><path d="M434.09,140.22c-15.46-10.52-48.7-15.91-67.42-9.7-23.91,7.94-23.07,25.36-40.47,36.14-47,29.09-94.71,9.53-144.38-3-110.07-27.81-179,78.1-70.9,143.21,65,39.13,201.5,67.72,216.87-36,6.65-44.84-17.34-48.25,38.4-58C388.19,209,504.13,187.89,434.09,140.22Z" style="fill:#fff;opacity:0.9"></path></g><g id="freepik--Shadow--inject-44"><ellipse id="freepik--path--inject-44" cx="250" cy="416.24" rx="193.89" ry="11.32" style="fill:#f5f5f5"></ellipse></g><g id="freepik--Folder--inject-44"><path d="M307.84,229.55h0a12.7,12.7,0,0,1,11.71-8.33H399.6A9.46,9.46,0,0,1,409.32,232L388.64,405.51a12.58,12.58,0,0,1-12.27,10.73h-254a9.44,9.44,0,0,1-9.71-10.73L130,259.73A12.58,12.58,0,0,1,142.27,249H280.49A29.67,29.67,0,0,0,307.84,229.55Z" style="fill:#03A879"></path><polygon points="117.23 408.25 382.64 408.25 397.76 229.67 132.36 229.67 117.23 408.25" style="fill:#f0f0f0"></polygon><polygon points="117.23 408.25 382.64 408.25 393.58 229.67 132.36 229.67 117.23 408.25" style="fill:#e0e0e0"></polygon><polygon points="117.23 408.25 382.64 408.25 391.76 224 126.36 224 117.23 408.25" style="fill:#f0f0f0"></polygon><polygon points="117.23 408.25 382.64 408.25 386.25 224 126.36 224 117.23 408.25" style="fill:#e0e0e0"></polygon><polygon points="117.23 408.25 382.64 408.25 384.22 219 118.82 219 117.23 408.25" style="fill:#f0f0f0"></polygon><polygon points="117.23 408.25 382.64 408.25 377.19 222.58 113.5 222.58 117.23 408.25" style="fill:#e0e0e0"></polygon><polygon points="117.23 408.25 382.64 408.25 374.76 224 109.36 224 117.23 408.25" style="fill:#f0f0f0"></polygon><polygon points="117.23 408.25 382.64 408.25 370.09 226.78 104.69 226.78 117.23 408.25" style="fill:#e0e0e0"></polygon><polygon points="117.23 408.25 382.64 408.25 368.09 228.33 102.69 228.33 117.23 408.25" style="fill:#f0f0f0"></polygon><path d="M250.14,240.82h0a8.65,8.65,0,0,1,9.05-8.53h80.05a14,14,0,0,1,13.14,11l31.63,162c1.18,6.07-2.78,11-8.85,11h-254c-6.08,0-12-4.93-13.15-11L81.92,271.74c-1.18-6.07,2.78-11,8.85-11H229C241,260.74,249.73,252.48,250.14,240.82Z" style="fill:#03A879"></path><path d="M250.14,240.82h0a8.65,8.65,0,0,1,9.05-8.53h80.05a14,14,0,0,1,13.14,11l31.63,162c1.18,6.07-2.78,11-8.85,11h-254c-6.08,0-12-4.93-13.15-11L81.92,271.74c-1.18-6.07,2.78-11,8.85-11H229C241,260.74,249.73,252.48,250.14,240.82Z" style="opacity:0.2"></path></g></svg>