<svg width="35" height="34" viewBox="0 0 35 34" fill="none" xmlns="http://www.w3.org/2000/svg">
<path id="Vector" d="M34.7955 16.9952C34.8074 16.5912 34.9139 10.8164 31.4963 7.05715C31.3445 6.72112 30.6243 5.36681 28.2998 3.7116C27.2693 2.91228 26.1748 2.1991 25.0273 1.57927L25.0228 1.57701C24.8777 1.49937 22.0433 0 18.6031 0C18.3418 0 18.0834 0.0152998 17.8279 0.0328662V0.0283328C15.2048 -0.0288995 12.5993 0.645989 11.0291 1.35488C9.63621 1.98387 8.08979 3.03842 7.97816 3.12001C6.04924 4.19893 2.39143 8.52876 2.10187 10.8232C0.932845 12.3174 -0.0440809 19.0295 2.10414 23.1179C3.61032 28.7998 9.28035 31.6433 9.73141 31.8614C10.0057 32.0365 13.0957 33.9467 16.8918 33.9467C17.051 33.9467 18.0138 34 18.3571 34C22.4604 34 28.5406 31.1078 29.8134 28.8423C33.3102 26.2844 35.123 19.6925 34.7955 16.9952ZM9.76258 25.5307C8.13682 22.9009 7.21033 19.4647 7.012 18.6753C7.52653 17.9041 10.0646 14.1619 11.5107 13.0359C12.3296 13.1867 15.7488 13.8145 18.9737 14.3982C19.3788 15.4482 21.1565 20.0812 21.6653 21.8696C21.1043 22.5348 18.9006 25.1006 16.7308 27.11C14.4273 27.1208 10.5094 25.792 9.76258 25.5307ZM30.1998 7.12855C30.193 7.38354 30.1324 8.29019 29.6983 9.33114C28.8364 8.89085 26.6701 7.94793 23.7008 7.7887C23.2514 7.12515 21.5605 4.81149 18.8898 3.20671C19.2553 2.49159 19.7642 1.61951 20.0617 1.35374C20.158 1.32654 20.3076 1.30161 20.5354 1.30161C21.9674 1.30161 24.4414 2.23943 24.6567 2.32273C24.8851 2.44343 29.3323 4.83812 30.1998 7.12855ZM6.3711 18.1398C4.43142 17.8089 3.27826 17.206 2.93373 17.002C2.21237 14.3857 2.7932 11.5581 2.88273 11.1529C3.59446 9.88023 5.62084 6.63612 6.9576 6.02017C8.34309 5.7374 10.0708 6.08873 10.7746 6.26043C10.7083 7.17558 10.5808 9.73234 10.9594 12.4155C9.42598 13.6496 6.99897 17.202 6.3711 18.1398ZM17.6545 0.866985C18.0897 0.899285 18.7283 0.994483 19.1658 1.12425C18.7294 1.7045 18.2823 2.56469 18.071 2.98968C17.1813 3.13531 13.8023 3.7813 11.1515 5.49998C10.6171 5.35831 9.00325 4.98035 7.47496 5.11068C7.85349 4.37799 8.41902 3.83627 8.47966 3.78074C8.68989 3.63001 12.737 0.79842 17.6545 0.859619V0.866985ZM28.4755 22.4527C27.8125 22.4255 25.258 22.2798 22.4569 21.6219C21.9203 19.7508 20.1484 15.1371 19.7432 14.0877C21.0323 12.2502 22.341 10.4266 23.669 8.61716C26.8922 8.79395 29.1555 9.96977 29.5935 10.2151C31.4606 13.2178 31.8703 16.2846 31.9264 16.7969C30.9348 19.8829 28.9736 21.9608 28.4755 22.4527ZM1.77094 15.0272C1.81854 15.7446 1.93357 16.4999 2.14154 17.2468C1.95457 17.7307 1.82487 18.2349 1.75507 18.749C1.63673 17.5109 1.64204 16.2642 1.77094 15.0272ZM7.23583 28.2637C8.09036 27.4404 9.14378 26.6391 9.55235 26.3365C10.476 26.6618 14.2692 27.9441 16.6872 27.9441C17.0992 28.4966 18.4461 30.2266 20.0974 31.5492C19.0694 32.555 17.5848 33.0299 17.3224 33.1087C12.7172 33.2322 8.23202 30.6437 7.23583 28.2637ZM19.3981 33.1018C19.9206 32.7976 20.4651 32.3969 20.9156 31.8898C21.6506 31.7883 24.8046 31.2455 27.6549 29.1517C27.8431 29.1721 28.153 29.197 28.4993 29.1874C26.7891 30.863 22.6162 32.7347 19.3981 33.1018ZM28.1383 28.3555C29.1623 25.6877 29.1186 23.6761 29.0682 23.0335C29.6303 22.4827 31.5592 20.4274 32.6297 17.3029C33.2065 17.3992 33.5817 17.546 33.7596 17.6281C33.8214 17.8548 33.9245 18.3784 33.8661 19.1723C33.4298 22.0299 31.9236 26.3122 29.2852 28.2054C29.02 28.3408 28.5531 28.3703 28.1383 28.3555Z" fill="#066B4F"/>
</svg>
