<svg width="35" height="32" viewBox="0 0 35 32" fill="none" xmlns="http://www.w3.org/2000/svg">
<g id="Group">
<path id="Vector" d="M8.69919 27.859L14.4516 20.8836L17.083 24.2399L12.0112 30.6896C10.0688 33.1577 6.47458 30.5568 8.69919 27.859ZM15.4173 11.9741C15.9651 10.1866 15.7134 8.65929 13.6548 6.39041L8.62449 0.339138C7.91062 -0.499241 6.22833 0.732042 6.93113 1.7475L10.9542 6.70307C11.7151 7.62722 10.3012 8.85021 9.51544 7.89838L5.35398 2.77403C4.57924 1.88585 2.97719 3.05903 3.7879 4.07449C4.96107 5.48562 6.77618 7.79047 7.94936 9.20161C8.76283 10.0289 7.52602 11.2547 6.72361 10.2226L2.59259 5.13146C1.98663 4.47293 0.996068 4.88243 0.73321 5.65164C0.450984 6.47342 1.14548 7.07384 1.61863 7.68256L6.22833 13.637C7.65883 15.2944 9.25811 16.2766 11.1175 15.7205C11.4025 15.6347 11.7511 15.4604 12.1246 15.2307L24.5094 31.218C25.1762 32.0786 26.4629 32.1699 27.2985 31.4754L27.4894 31.3177C28.4302 30.5346 28.5823 29.1041 27.7772 28.18L14.6619 13.1113C15.0438 12.6852 15.3232 12.2812 15.4173 11.9741ZM18.923 15.4604L20.9622 12.9868C18.3392 6.48448 28.0594 -2.18153 32.7715 1.80284C38.4962 6.64773 29.9879 18.3242 24.0086 15.4383L21.5931 18.5068L18.923 15.4604Z" fill="#066B4F"/>
</g>
</svg>
