<svg width="42" height="46" viewBox="0 0 42 46" fill="none" xmlns="http://www.w3.org/2000/svg">
<path d="M37.6667 13.4167V35.2917C37.6667 38.8334 34.9584 41.5418 31.4167 41.5418H8.29175C8.29175 43.8334 10.1667 45.7084 12.4584 45.7084H33.5001C38.0834 45.7084 41.8334 41.9584 41.8334 37.3751V17.5834C41.8334 15.2917 39.9584 13.4167 37.6667 13.4167Z" fill="#066B4F"/>
<path d="M6.41675 0.291748V4.45841H4.33341C2.04175 4.45841 0.166748 6.33341 0.166748 8.62508V33.6251C0.166748 35.9167 2.04175 37.7917 4.33341 37.7917H29.7501C32.0417 37.7917 33.9167 35.9167 33.9167 33.6251V8.62508C33.9167 6.33341 32.0417 4.45841 29.7501 4.45841H27.6667V0.291748H23.5001V4.45841H10.5834V0.291748H6.41675ZM4.33341 14.8751H29.7501V33.6251H4.33341V14.8751Z" fill="#066B4F"/>
<path d="M24.5417 31.9583L19.5417 29.0417L14.75 31.9583L16 26.3333L11.625 22.5833L17.4583 22.1667L19.75 16.75L22.0417 21.9583L27.875 22.5833L23.5 26.3333L24.5417 31.9583Z" fill="#066B4F"/>
</svg>
