<svg width="50" height="50" viewBox="0 0 50 50" fill="none" xmlns="http://www.w3.org/2000/svg">
<g clip-path="url(#clip0_226_721)">
<path d="M26.4191 45.7149C24.4282 43.1039 23.4913 39.71 23.4871 36.1341C23.4896 32.2666 24.5933 28.143 26.8818 24.4434C29.1676 20.7478 32.6685 17.4846 37.391 15.4632C40.008 14.3417 41.7421 13.1638 42.8719 12.0297C43.7297 11.1644 44.2596 10.3344 44.6025 9.48592C44.1518 8.91804 43.6791 8.3611 43.1718 7.82437C35.0707 -0.750551 22.3394 -2.31698 12.5414 3.3207C12.1799 3.83975 11.842 4.3672 11.5505 4.909C10.6152 6.64555 10.065 8.46716 10.0634 10.4363C10.0659 12.1172 10.4619 13.9347 11.4755 15.9678C12.9862 18.9987 13.7411 22.5577 13.7454 26.1074C13.7428 29.1322 13.1919 32.1579 11.9818 34.8381C10.7754 37.5108 8.86853 39.8641 6.18748 41.3074C6.15544 41.3243 6.12175 41.3395 6.08972 41.3563C6.32908 41.6318 6.57166 41.9056 6.82449 42.1737C13.2592 48.9833 22.6108 51.3737 31.0946 49.2487C30.787 49.1299 30.4811 49.0085 30.1905 48.8628C28.6814 48.1087 27.4135 47.0159 26.4191 45.7149Z" fill="#066B4F"/>
<path d="M47.049 13.2092C46.2569 14.3265 45.2147 15.3915 43.8852 16.3688C42.5472 17.3556 40.9227 18.2671 38.9545 19.1115C35.0012 20.8084 32.1508 23.4802 30.255 26.5336C28.3626 29.5838 27.4534 33.0248 27.4561 36.134C27.4543 38.2909 27.8924 40.2777 28.6777 41.8575C29.4672 43.4425 30.566 44.6103 31.9662 45.3129C32.904 45.7814 33.9968 46.0544 35.3154 46.0561C36.5986 46.0561 38.1145 45.7661 39.8324 45.1225C40.6404 44.5251 41.424 43.8806 42.1722 43.1728C50.5566 35.251 52.2435 22.9106 47.049 13.2092Z" fill="#066B4F"/>
<path d="M9.77589 26.1075C9.78008 23.1315 9.117 20.1158 7.92569 17.7431C6.66514 15.2264 6.09307 12.761 6.09473 10.4364C6.09473 9.7631 6.15704 9.10929 6.24639 8.46387C-1.08232 16.7633 -1.9999 28.8475 3.69346 38.0932C3.89981 38.003 4.11055 37.9171 4.30596 37.8126C5.49151 37.1732 6.47725 36.2589 7.29034 35.1028C8.91807 32.8008 9.78262 29.4945 9.77589 26.1075Z" fill="#066B4F"/>
</g>
<defs>
<clipPath id="clip0_226_721">
<rect width="50" height="50" fill="white"/>
</clipPath>
</defs>
</svg>
