<svg width="50" height="50" viewBox="0 0 50 50" fill="none" xmlns="http://www.w3.org/2000/svg">
<g clip-path="url(#clip0_250_143)">
<rect width="50" height="50" fill="#FAFAFA"/>
<path fill-rule="evenodd" clip-rule="evenodd" d="M32.7344 30.5313C33.3437 31.1407 33.3437 32.1249 32.7344 32.7343C32.1234 33.3437 31.1344 33.3437 30.525 32.7343L25 27.2032L19.475 32.7343C18.8656 33.3437 17.8766 33.3437 17.2656 32.7343C16.6563 32.1249 16.6563 31.1407 17.2656 30.5313L22.7906 25L17.2656 19.4687C16.6563 18.8593 16.6563 17.8751 17.2656 17.2657C17.8766 16.6563 18.8656 16.6563 19.475 17.2657L25 22.7968L30.525 17.2657C31.1344 16.6563 32.1234 16.6563 32.7344 17.2657C33.3437 17.8751 33.3437 18.8593 32.7344 19.4687L27.2094 25L32.7344 30.5313ZM43.75 0H6.25C2.79844 0 0 2.79688 0 6.25V43.75C0 47.2031 2.79844 50 6.25 50H43.75C47.2016 50 50 47.2031 50 43.75V6.25C50 2.79688 47.2016 0 43.75 0Z" fill="#DC2626"/>
</g>
<defs>
<clipPath id="clip0_250_143">
<rect width="50" height="50" fill="white"/>
</clipPath>
</defs>
</svg>
