<svg width="50" height="50" viewBox="0 0 50 50" fill="none" xmlns="http://www.w3.org/2000/svg">
<g clip-path="url(#clip0_226_715)">
<path d="M49.9444 24.9929C49.9619 24.3988 50.1186 15.9064 45.0928 10.3782C44.8695 9.884 43.8103 7.89237 40.392 5.45824C38.8765 4.28277 37.267 3.23397 35.5795 2.32246L35.5729 2.31913C35.3595 2.20496 31.1912 0 26.1321 0C25.7479 0 25.3679 0.0224997 24.9921 0.0483326V0.0416659C21.1346 -0.0424993 17.303 0.949984 14.9938 1.99247C12.9455 2.91745 10.6714 4.46826 10.5072 4.58826C7.67057 6.1749 2.29144 12.5423 1.86561 15.9164C0.14646 18.1139 -1.2902 27.9845 1.86895 33.9969C4.08393 42.3526 12.4222 46.5342 13.0855 46.8551C13.4889 47.1125 18.033 49.9217 23.6154 49.9217C23.8496 49.9217 25.2654 50 25.7704 50C31.8046 50 40.7462 45.7467 42.6178 42.4151C47.7603 38.6535 50.4261 28.9595 49.9444 24.9929ZM13.1314 37.5452C10.7405 33.6778 9.37806 28.6245 9.08639 27.4637C9.84305 26.3296 13.5755 20.8263 15.7022 19.1705C16.9063 19.3922 21.9346 20.3155 26.6771 21.1738C27.2729 22.718 29.8871 29.5312 30.6354 32.1611C29.8104 33.1395 26.5696 36.9127 23.3788 39.8677C19.9913 39.8835 14.2297 37.9294 13.1314 37.5452ZM43.1861 10.4832C43.1761 10.8582 43.087 12.1915 42.4486 13.7223C41.1811 13.0748 37.9953 11.6881 33.6287 11.454C32.9679 10.4782 30.4812 7.07572 26.5538 4.71575C27.0913 3.66411 27.8396 2.38163 28.2771 1.9908C28.4187 1.9508 28.6387 1.91413 28.9737 1.91413C31.0796 1.91413 34.7179 3.29328 35.0345 3.41578C35.3704 3.59327 41.9103 7.11488 43.1861 10.4832ZM8.1439 26.6762C5.29142 26.1896 3.5956 25.3029 3.08894 25.0029C2.02811 21.1555 2.88227 16.9972 3.01394 16.4014C4.0606 14.5298 7.04057 9.759 9.00639 8.85319C11.0439 8.43736 13.5847 8.95402 14.6197 9.20651C14.5222 10.5523 14.3347 14.3123 14.8913 18.258C12.6364 20.073 9.06723 25.2971 8.1439 26.6762ZM24.7371 1.27498C25.3771 1.32248 26.3163 1.46248 26.9596 1.65331C26.3179 2.50662 25.6604 3.7716 25.3496 4.39659C24.0413 4.61076 19.0722 5.56074 15.1738 8.0882C14.388 7.87987 12.0147 7.32404 9.76722 7.51571C10.3239 6.43823 11.1555 5.64157 11.2447 5.55991C11.5539 5.33824 17.5055 1.17415 24.7371 1.26415V1.27498ZM40.6503 33.0186C39.6753 32.9786 35.9187 32.7645 31.7996 31.797C31.0104 29.0454 28.4046 22.2605 27.8087 20.7172C29.7045 18.0151 31.629 15.3333 33.582 12.6723C38.322 12.9323 41.6503 14.6614 42.2945 15.0222C45.0403 19.438 45.6428 23.9479 45.7253 24.7013C44.267 29.2395 41.3828 32.2953 40.6503 33.0186ZM1.37895 22.0988C1.44895 23.1538 1.61812 24.2646 1.92395 25.3629C1.649 26.0746 1.45826 26.816 1.35562 27.572C1.18158 25.7514 1.1894 23.9179 1.37895 22.0988ZM9.41556 41.5643C10.6722 40.3535 12.2214 39.1752 12.8222 38.7302C14.1805 39.2085 19.7588 41.0943 23.3146 41.0943C23.9204 41.9068 25.9013 44.4509 28.3296 46.3959C26.8179 47.875 24.6346 48.5734 24.2488 48.6892C17.4763 48.8709 10.8805 45.0642 9.41556 41.5643ZM27.3013 48.6792C28.0696 48.2317 28.8704 47.6425 29.5329 46.8967C30.6137 46.7476 35.252 45.9492 39.4437 42.8701C39.7203 42.9001 40.1762 42.9368 40.6853 42.9226C38.1703 45.3867 32.0337 48.1392 27.3013 48.6792ZM40.1545 41.6993C41.6603 37.776 41.5961 34.8177 41.522 33.8728C42.3486 33.0628 45.1853 30.0403 46.7594 25.4454C47.6078 25.5871 48.1594 25.8029 48.4211 25.9237C48.5119 26.2571 48.6636 27.0271 48.5778 28.1945C47.9361 32.397 45.7211 38.6944 41.8411 41.4785C41.4511 41.6776 40.7645 41.721 40.1545 41.6993Z" fill="#066B4F"/>
</g>
<defs>
<clipPath id="clip0_226_715">
<rect width="50" height="50" fill="white"/>
</clipPath>
</defs>
</svg>
