<svg width="60" height="60" viewBox="0 0 60 60" fill="none" xmlns="http://www.w3.org/2000/svg">
<g clip-path="url(#clip0_260_2039)">
<path d="M38.9111 21.2109C38.1836 21.6065 37.2754 21.3379 36.8848 20.6152C36.4893 19.8877 36.7578 18.9795 37.4854 18.5889C40.9229 16.7236 42.5244 14.3115 42.8467 11.9531C43.0176 10.6934 42.8223 9.42872 42.3486 8.25685C41.8652 7.07033 41.0986 5.99122 40.127 5.12208C38.2373 3.43263 35.5859 2.54396 32.8174 3.23243C31.6943 3.51076 30.7227 4.07228 29.873 4.86329C28.9697 5.70314 28.1885 6.80177 27.5049 8.1006C27.1191 8.83302 26.2158 9.11134 25.4883 8.73048C24.7559 8.34474 24.4775 7.44142 24.8584 6.71388C25.6982 5.12208 26.6797 3.7549 27.8418 2.67091C29.0576 1.54298 30.4688 0.732435 32.1094 0.327162C35.918 -0.615221 39.5459 0.585951 42.124 2.89064C43.4326 4.06251 44.4727 5.52247 45.127 7.1338C45.7861 8.75978 46.0547 10.5469 45.8057 12.3584C45.3613 15.5908 43.291 18.833 38.9111 21.2109ZM27.4561 33.0127C21.792 25.4053 21.6553 18.1983 28.5303 11.499L23.5791 8.76466C19.6143 7.22169 12.3389 18.5938 15.1514 21.6309L19.0088 27.3535L18.2129 29.0137C17.9932 29.5068 18.208 29.8535 18.7451 30.0928L19.2676 30.2344L9.2334 50.0928L11.2646 54.4238L15.3271 53.2276L16.3721 51.1963L15.3711 49.3213L17.5781 48.8477L18.0908 47.8516L16.9385 46.0938L17.6953 44.624L19.8975 44.3457L20.6152 42.9541L19.3848 41.3477L20.1709 39.8242L22.417 39.458L25.4736 33.6231L25.9912 33.9063C26.8896 34.4531 27.3535 34.1016 27.4561 33.0127ZM38.1152 37.7832L36.6211 43.3594L34.5459 44.1797L34.1113 45.8057L35.625 47.0899L35.2295 48.5693L33.1787 49.292L32.7588 50.8545L34.2285 52.2949L33.9453 53.3545L31.9287 54.2676L33.2764 55.8545L32.6953 58.0176L29.0576 60.0049L26.2158 56.2793L31.6357 36.0498L30.3223 35.6983C30.0537 35.625 29.8877 35.3467 29.9609 35.0733L30.5127 33.0176C26.5381 30.0049 24.5703 24.7901 25.9375 19.6777C27.6953 13.1104 34.3262 9.14552 40.8984 10.6201C40.9277 10.9717 40.9229 11.3281 40.874 11.6846C40.752 12.5733 40.3662 13.4863 39.6533 14.3701C39.5557 14.4873 39.4531 14.6094 39.3457 14.7266C37.2461 14.5899 35.2783 15.9473 34.7119 18.0567C34.4678 18.9649 34.5215 19.8828 34.8096 20.708C34.8779 21.001 34.9902 21.2842 35.1367 21.5625C35.4834 22.1973 35.9912 22.6807 36.5869 22.9883C36.9775 23.2471 37.417 23.4424 37.8906 23.5742C40.249 24.2041 42.666 22.8467 43.3691 20.5274C44.082 19.8975 44.7021 19.2334 45.2344 18.5498C46.2695 17.2168 46.9775 15.8008 47.3975 14.3604C50.249 17.4365 51.5039 21.8652 50.3369 26.2207C48.9697 31.333 44.6484 34.8682 39.707 35.4883L39.1553 37.544C39.082 37.8125 38.8037 37.9785 38.5303 37.9053L38.1152 37.7832Z" fill="#066B4F"/>
</g>
<defs>
<clipPath id="clip0_260_2039">
<rect width="60" height="60" fill="white"/>
</clipPath>
</defs>
</svg>
