<svg width="34" height="36" viewBox="0 0 34 36" fill="none" xmlns="http://www.w3.org/2000/svg">
<g id="logo" clip-path="url(#clip0_669_378)">
<path id="Vector" d="M27.6948 5.19875C24.8375 2.16979 21.0398 0.5 17 0.5C12.9603 0.5 9.16113 2.16979 6.30525 5.19875C3.448 8.22771 1.875 12.2556 1.875 16.5417C1.875 20.8277 3.448 24.8542 6.34375 27.924L11.7654 33.2367C13.172 34.6965 15.031 35.5 17 35.5C18.969 35.5 20.828 34.6965 22.2071 33.2644L27.6961 27.8846C30.5534 24.8542 32.1264 20.8263 32.1264 16.5417C32.1264 12.2571 30.5506 8.22771 27.6948 5.19875ZM20.4375 10.7083C21.576 10.7083 22.5 11.6883 22.5 12.8958C22.5 14.1033 21.576 15.0833 20.4375 15.0833C19.299 15.0833 18.375 14.1033 18.375 12.8958C18.375 11.6883 19.299 10.7083 20.4375 10.7083ZM13.5625 10.7083C14.701 10.7083 15.625 11.6883 15.625 12.8958C15.625 14.1033 14.701 15.0833 13.5625 15.0833C12.424 15.0833 11.5 14.1033 11.5 12.8958C11.5 11.6883 12.424 10.7083 13.5625 10.7083ZM23.4721 19.5312C21.7438 21.3644 19.4448 22.375 17 22.375C14.5553 22.375 12.2563 21.3658 10.5279 19.5312C9.99025 18.961 9.99025 18.0394 10.5279 17.4692C11.0655 16.899 11.9345 16.899 12.4721 17.4692C13.6808 18.751 15.2895 19.4583 17 19.4583C18.7105 19.4583 20.3193 18.7525 21.5279 17.4692C22.0655 16.899 22.9345 16.899 23.4721 17.4692C24.0098 18.0394 24.0098 18.961 23.4721 19.5312Z" fill="#03A879"/>
</g>
<defs>
<clipPath id="clip0_669_378">
<rect width="33" height="35" fill="white" transform="translate(0.5 0.5)"/>
</clipPath>
</defs>
</svg>
