<svg width="60" height="60" viewBox="0 0 60 60" fill="none" xmlns="http://www.w3.org/2000/svg">
<g clip-path="url(#clip0_260_2117)">
<path d="M45.3146 31.1241V14.3408H14.6853V31.1241H17.2027V16.8584H42.7972V31.1241H45.3146Z" fill="#066B4F"/>
<path d="M14.2543 34.397C14.2543 35.1018 14.8246 35.6721 15.5295 35.6721H44.4691C45.1722 35.6721 45.7442 35.1018 45.7442 34.397C45.7442 33.6914 45.1722 33.1211 44.4691 33.1211H15.5295C14.8247 33.1211 14.2543 33.6914 14.2543 34.397Z" fill="#066B4F"/>
<path d="M43.8135 36.6116L43.8381 36.5591H41.3696C41.3189 36.6886 41.2648 36.8253 41.2042 36.9803C39.6733 37.8849 37.446 39.256 35.0202 41.072C34.7498 40.8089 34.4794 40.5507 34.2171 40.3074C32.6567 38.87 31.2554 37.7883 30.1492 37.1458L29.8475 36.964L29.541 37.1458C28.4331 37.7883 27.0334 38.87 25.4731 40.3074C25.2076 40.5525 24.9371 40.8031 24.6667 41.0679C22.2459 39.2559 20.0218 37.8874 18.4925 36.9835C18.4319 36.8279 18.3763 36.6886 18.3238 36.5591H15.8522C16.0619 37.0295 17.6731 40.8368 19.0384 46.3881C19.1237 46.7232 19.2073 47.0666 19.2924 47.4092C19.3449 47.6502 19.399 47.8911 19.453 48.1385C19.5136 48.4024 19.5677 48.6712 19.6283 48.9416C20.2955 52.1228 20.8231 55.727 20.969 59.5057L23.2685 59.4246C23.2521 58.9509 23.2226 58.492 23.1914 58.0323V58.0249C23.1815 57.8767 23.1653 57.7365 23.1554 57.5898C23.8126 55.7025 24.6992 53.9267 25.7549 52.2763L25.7581 52.2803C26.953 53.4882 28.0955 54.7921 29.1362 56.2098C28.4528 57.1906 27.8217 58.2233 27.253 59.2969H28.5822C28.9788 58.5888 29.3935 57.8947 29.8475 57.2284C30.3031 57.8947 30.7179 58.5887 31.1144 59.2969H32.4404C31.8717 58.2233 31.2439 57.1908 30.5589 56.2098C31.5997 54.7921 32.7436 53.4882 33.9302 52.2803L33.9351 52.2753C34.9889 53.9232 35.8758 55.6976 36.533 57.5824C36.5231 57.7267 36.5067 57.8651 36.4985 58.0101C36.4673 58.4772 36.4362 58.9509 36.4214 59.4246L38.7192 59.5057C38.8733 55.7271 39.401 52.1368 40.0599 48.9563V48.949C40.1206 48.6712 40.1829 48.4024 40.2353 48.1385C40.2893 47.891 40.3516 47.6501 40.4041 47.4092C40.4811 47.0584 40.5663 46.7232 40.6499 46.3881C40.9187 45.272 41.2022 44.2287 41.4858 43.2731C42.0971 41.1793 42.6954 39.4796 43.1395 38.3045C43.3608 37.7136 43.546 37.2613 43.6672 36.9547C43.7364 36.8015 43.7838 36.6853 43.8135 36.6116ZM25.5813 41.7661C25.8239 41.5366 26.0599 41.3187 26.2861 41.1113C27.6562 39.8476 28.8954 38.8831 29.8476 38.2841C30.8015 38.8831 32.0389 39.8477 33.4043 41.1113C33.6305 41.3187 33.8632 41.5415 34.104 41.7718C33.3091 42.3921 32.5011 43.0567 31.6948 43.7696C31.0753 44.3179 30.4573 44.8956 29.846 45.4979C29.2364 44.8956 28.6185 44.3178 27.9973 43.7696C27.1892 43.056 26.378 42.3896 25.5814 41.7676L25.5813 41.7661ZM19.4826 39.7199V39.7125C19.3564 39.347 19.2368 39.0077 19.1221 38.6856C20.4643 39.5101 22.1018 40.5753 23.8522 41.8792C23.0754 42.6609 22.2838 43.5132 21.4839 44.4328C21.3381 44.6048 21.1921 44.7883 21.0446 44.963C20.5201 42.9347 19.9694 41.158 19.4826 39.7199ZM22.9278 55.0567C22.7427 53.4128 22.5065 51.8287 22.2329 50.3201C22.1394 49.8119 22.0411 49.3153 21.9378 48.8245C22.146 48.9933 22.3541 49.1573 22.5622 49.3343C22.8852 49.6064 23.2146 49.8849 23.5374 50.1726C23.998 50.5824 24.4585 51.007 24.9191 51.4445C24.1718 52.5867 23.508 53.7955 22.9278 55.0567ZM25.5665 50.4921C25.1567 50.1005 24.7471 49.7176 24.3275 49.3547C23.6244 48.7261 22.9147 48.1401 22.2181 47.5895C21.9969 47.4099 21.7788 47.251 21.5592 47.083C21.5248 46.9355 21.4937 46.7813 21.4592 46.6372C21.4363 46.534 21.41 46.4389 21.3871 46.3372L21.4183 46.2971C21.551 46.1307 21.6903 45.9692 21.8215 45.8087C22.8197 44.6286 23.8079 43.5404 24.7683 42.5774C25.5698 43.2019 26.386 43.8689 27.199 44.5884C27.8185 45.1343 28.4348 45.712 29.0412 46.3118C27.812 47.5936 26.6318 48.9875 25.5665 50.4921ZM29.8476 55.232C28.7774 53.8224 27.6121 52.5097 26.4108 51.3091L26.4042 51.305C27.4499 49.8037 28.6201 48.4114 29.846 47.1289C31.072 48.4106 32.2406 49.8021 33.2846 51.3026C32.0831 52.5097 30.9178 53.8159 29.8476 55.232ZM37.4558 50.3281C37.1821 51.8344 36.9477 53.4176 36.7625 55.0533C36.1823 53.7937 35.5201 52.5882 34.7744 51.4475C35.2366 51.0083 35.6972 50.5838 36.1594 50.1723C36.4822 49.8846 36.8051 49.606 37.1263 49.3405C37.3345 49.1642 37.5426 48.9988 37.7491 48.8299C37.6492 49.3217 37.5492 49.8136 37.4558 50.3281ZM38.2294 46.6437C38.1949 46.7846 38.1654 46.9387 38.131 47.083C37.9114 47.251 37.6917 47.4149 37.4706 47.5895C36.7755 48.1468 36.0643 48.7326 35.3612 49.3547C34.9417 49.7185 34.5319 50.1013 34.1221 50.4848L34.1204 50.4865C33.0567 48.9835 31.8783 47.5912 30.6491 46.312C31.2571 45.7122 31.8717 45.1344 32.4913 44.5887C33.3058 43.8709 34.1204 43.2021 34.9219 42.5776C35.8741 43.5422 36.8706 44.6297 37.867 45.8162C38.0146 45.9883 38.1572 46.1678 38.303 46.3456C38.2786 46.4471 38.254 46.5421 38.2294 46.6437ZM40.206 39.7125V39.7199C39.7208 41.1638 39.1718 42.9364 38.6474 44.9687C38.4998 44.795 38.3556 44.6163 38.2049 44.4476C37.4132 43.5263 36.615 42.6691 35.8382 41.88C37.5869 40.5762 39.226 39.5116 40.5683 38.6856C40.4518 39.0076 40.3322 39.3486 40.206 39.7125Z" fill="#066B4F"/>
<path d="M0 0.494629V46.2289H16.4013C15.9933 44.6472 15.5736 43.2362 15.1852 42.0331H4.19578V4.69053H55.8042V42.0331H44.5018C44.3084 42.6314 44.1068 43.2788 43.9018 43.9794C43.6822 44.7194 43.4905 45.4751 43.2988 46.2289H60V44.131V0.494629H0Z" fill="#066B4F"/>
</g>
<defs>
<clipPath id="clip0_260_2117">
<rect width="60" height="60" fill="white"/>
</clipPath>
</defs>
</svg>
