<svg width="623" height="465" viewBox="0 0 623 465" fill="none" xmlns="http://www.w3.org/2000/svg">
<path d="M446.579 148.487C423.378 127.181 398.882 155.004 373.837 155.353C343.809 155.777 334.439 142.893 315.462 122.571C287.465 92.5795 258.445 53.7541 213.128 54.9378C91.419 58.1276 95.0324 203.673 161.232 271.156C204.182 314.916 251.131 303.104 305.444 308.686C354.412 313.67 431.627 353.828 480.059 327.189C523.195 303.452 510.922 240.579 468.845 223.21C455.226 217.591 447.239 204.632 449.046 189.88C450.728 176.012 459.014 159.888 446.579 148.487Z" fill="#03A879"/>
<path opacity="0.9" d="M446.579 148.487C423.378 127.181 398.882 155.004 373.837 155.353C343.809 155.777 334.439 142.893 315.462 122.571C287.465 92.5795 258.445 53.7541 213.128 54.9378C91.419 58.1276 95.0324 203.673 161.232 271.156C204.182 314.916 251.131 303.104 305.444 308.686C354.412 313.67 431.627 353.828 480.059 327.189C523.195 303.452 510.922 240.579 468.845 223.21C455.226 217.591 447.239 204.632 449.046 189.88C450.728 176.012 459.014 159.888 446.579 148.487Z" fill="white"/>
<path d="M311.5 464.71C444.925 464.71 553.087 458.395 553.087 450.605C553.087 442.815 444.925 436.5 311.5 436.5C178.075 436.5 69.9131 442.815 69.9131 450.605C69.9131 458.395 178.075 464.71 311.5 464.71Z" fill="#F5F5F5"/>
<path d="M229.999 450.605L190.738 450.605C189.257 450.605 187.837 450.017 186.791 448.97C185.744 447.923 185.156 446.503 185.156 445.023V376.605H235.581V445.035C235.578 446.514 234.988 447.93 233.942 448.974C232.895 450.019 231.477 450.605 229.999 450.605Z" fill="#03A879"/>
<path opacity="0.2" d="M235.581 376.605H185.168V406.297L235.581 395.37V376.605Z" fill="black"/>
<path d="M257.274 286.843C257.274 268.007 264.757 249.942 278.076 236.623C291.395 223.304 309.46 215.821 328.296 215.821C347.132 215.821 365.197 223.304 378.516 236.623C391.836 249.942 399.318 268.007 399.318 286.843V376.555H257.274V286.843Z" fill="#03A879"/>
<path opacity="0.3" d="M257.274 286.843C257.274 268.007 264.757 249.942 278.076 236.623C291.395 223.304 309.46 215.821 328.296 215.821C347.132 215.821 365.197 223.304 378.516 236.623C391.836 249.942 399.318 268.007 399.318 286.843V376.555H257.274V286.843Z" fill="black"/>
<path d="M90.0734 286.831V367.759C90.0734 368.921 90.3026 370.073 90.748 371.147C91.1933 372.221 91.8461 373.197 92.6689 374.018C93.4917 374.84 94.4684 375.491 95.5432 375.935C96.6179 376.379 97.7696 376.607 98.9324 376.605H257.274V286.831C257.274 267.995 264.757 249.93 278.076 236.611C291.395 223.291 309.46 215.809 328.296 215.809H161.095C142.259 215.809 124.194 223.291 110.875 236.611C97.556 249.93 90.0734 267.995 90.0734 286.831Z" fill="#03A879"/>
<path opacity="0.2" d="M90.0858 350.115H257.287V325.195H90.0858V350.115Z" fill="black"/>
<path opacity="0.2" d="M90.0858 317.458H257.287V292.538H90.0858V317.458Z" fill="black"/>
<path d="M267.753 211.448H247.406V212.694H267.753V211.448Z" fill="#03A879"/>
<path d="M236.74 211.448H225.8V212.694H236.74V211.448Z" fill="#03A879"/>
<path d="M171.848 310.181V209.255C171.849 208.852 171.761 208.455 171.592 208.09C171.422 207.725 171.176 207.401 170.868 207.141C170.561 206.881 170.201 206.692 169.813 206.586C169.425 206.479 169.018 206.459 168.621 206.526L133.397 212.32V226.936H160.323V309.957C157.604 311.206 155.389 313.34 154.04 316.011C152.692 318.682 152.289 321.732 152.898 324.661C153.507 327.591 155.092 330.227 157.394 332.139C159.696 334.051 162.578 335.126 165.57 335.187C168.561 335.248 171.485 334.293 173.864 332.477C176.242 330.662 177.934 328.093 178.663 325.191C179.392 322.289 179.115 319.225 177.877 316.501C176.639 313.777 174.514 311.553 171.848 310.193V310.181Z" fill="#263238"/>
<path d="M267.379 386.76H449.594C450.924 386.763 452.201 386.242 453.149 385.308C454.096 384.375 454.637 383.106 454.653 381.776C454.653 380.434 454.12 379.148 453.171 378.199C452.223 377.25 450.936 376.717 449.594 376.717H257.274C257.291 379.387 258.363 381.941 260.256 383.822C262.149 385.704 264.71 386.76 267.379 386.76Z" fill="#03A879"/>
<path opacity="0.2" d="M267.379 386.76H341.84C343.17 386.763 344.447 386.242 345.395 385.308C346.342 384.375 346.883 383.106 346.899 381.776C346.899 380.434 346.366 379.148 345.417 378.199C344.469 377.25 343.182 376.717 341.84 376.717H257.274C257.291 379.387 258.363 381.941 260.256 383.822C262.149 385.704 264.71 386.76 267.379 386.76Z" fill="black"/>
<path d="M441.682 439.566L431.141 439.653L428.263 415.244L438.816 415.156L441.682 439.566Z" fill="#FF8B7B"/>
<path opacity="0.2" d="M428.263 415.256L429.745 427.841L440.299 427.741L438.816 415.169L428.263 415.256Z" fill="black"/>
<path d="M527.357 413.686L518.286 419.069L503.521 399.419L512.592 394.037L527.357 413.686Z" fill="#FF8B7B"/>
<path opacity="0.2" d="M503.534 399.419L511.134 409.549L520.217 404.167L512.604 394.037L503.534 399.419Z" fill="black"/>
<path d="M431.116 438.432L442.642 438.332C442.855 438.334 443.061 438.404 443.232 438.531C443.402 438.659 443.527 438.838 443.588 439.042L446.38 448.4C446.451 448.617 446.47 448.848 446.434 449.073C446.398 449.299 446.309 449.513 446.173 449.697C446.038 449.881 445.86 450.03 445.656 450.132C445.451 450.234 445.225 450.285 444.996 450.281C440.835 450.281 434.817 450.057 429.583 450.107C423.478 450.107 420.762 450.543 413.597 450.605C409.261 450.605 407.741 446.269 409.523 445.858C417.634 443.989 421.833 443.74 428.636 439.279C429.364 438.764 430.225 438.47 431.116 438.432Z" fill="#263238"/>
<path d="M426.767 440.338C427.904 440.316 429.036 440.179 430.144 439.927C430.195 439.918 430.241 439.893 430.275 439.854C430.309 439.815 430.329 439.766 430.331 439.715C430.336 439.664 430.326 439.613 430.302 439.569C430.277 439.524 430.24 439.488 430.194 439.466C429.696 439.217 425.21 437.098 424.051 437.846C423.939 437.918 423.848 438.018 423.787 438.136C423.726 438.254 423.696 438.386 423.702 438.519C423.689 438.756 423.733 438.993 423.831 439.21C423.928 439.427 424.076 439.617 424.263 439.765C425.014 440.222 425.893 440.423 426.767 440.338ZM429.259 439.59C426.979 439.989 425.247 439.902 424.55 439.341C424.428 439.243 424.33 439.117 424.266 438.974C424.201 438.831 424.17 438.676 424.176 438.519C424.171 438.471 424.179 438.423 424.199 438.379C424.218 438.336 424.249 438.298 424.288 438.27C424.973 437.846 427.478 438.743 429.284 439.565L429.259 439.59Z" fill="#03A879"/>
<path d="M430.094 439.914C430.144 439.925 430.195 439.925 430.244 439.914C430.28 439.888 430.308 439.852 430.324 439.809C430.339 439.767 430.342 439.721 430.331 439.678C430.331 439.478 429.509 434.943 426.992 435.229C426.331 435.304 426.144 435.628 426.107 435.902C425.933 437.148 428.599 439.366 429.995 439.939L430.094 439.914ZM427.204 435.665C428.711 435.665 429.471 438.157 429.696 439.204C428.312 438.419 426.456 436.625 426.556 435.927C426.556 435.927 426.556 435.715 427.004 435.665H427.204Z" fill="#03A879"/>
<path d="M446.417 148.313C445.034 156.325 443.277 164.013 441.146 171.775C440.083 175.646 438.908 179.505 437.62 183.351C436.947 185.282 436.312 187.201 435.552 189.12C435.19 190.079 434.829 191.038 434.418 191.998L433.832 193.443L433.533 194.153L433.371 194.54L433.147 195.026C432.124 197.228 430.871 199.317 429.409 201.256C428.163 203.012 426.805 204.632 425.472 206.24C422.805 209.379 420.027 212.295 417.211 215.161C411.587 220.81 405.673 226.163 399.493 231.197L393.873 225.602C398.67 219.509 403.505 213.354 408.177 207.261C410.507 204.221 412.775 201.131 414.893 198.078C415.952 196.558 416.961 195.026 417.846 193.53C418.647 192.257 419.331 190.915 419.89 189.518C419.964 189.369 420.139 188.771 420.276 188.372L420.699 187.051C420.999 186.191 421.26 185.294 421.522 184.397C422.058 182.615 422.556 180.796 423.067 178.99C424.039 175.339 424.948 171.651 425.833 167.938C427.552 160.462 429.21 152.911 430.705 145.51L446.417 148.313Z" fill="#FF8B7B"/>
<path d="M450.142 149.771C449.507 161.807 443.676 178.703 443.676 178.703L427.303 172.473L420.562 169.981C421.45 162.012 423.343 154.187 426.194 146.693C431.178 133.859 442.729 130.732 448.622 140.177C449.993 142.307 450.354 145.771 450.142 149.771Z" fill="#03A879"/>
<path opacity="0.2" d="M450.142 149.771C449.507 161.807 443.676 178.703 443.676 178.703L427.303 172.473C428.278 168.226 429.552 164.054 431.116 159.988C435.203 149.297 443.925 145.347 450.142 149.771Z" fill="black"/>
<path d="M396.527 224.419L385.413 226.238L385.326 237.14C385.326 237.14 395.991 235.645 400.165 230.537L396.527 224.419Z" fill="#FF8B7B"/>
<path d="M375.121 232.555L375.358 239.72L385.326 237.14L385.4 226.238L375.121 232.555Z" fill="#FF8B7B"/>
<path d="M438.442 226.238C438.442 226.238 422.606 283.89 418.407 316.162C414.046 349.729 424.338 421.71 424.338 421.71L443.389 421.299C443.389 421.299 444.822 347.922 451.052 314.916C457.88 278.944 470.888 225.54 470.888 225.54L438.442 226.238Z" fill="#263238"/>
<path d="M445.732 422.159L423.328 422.607L421.684 415.169L445.445 415.106L445.732 422.159Z" fill="#03A879"/>
<path opacity="0.4" d="M445.732 422.159L423.328 422.607L421.684 415.169L445.445 415.106L445.732 422.159Z" fill="white"/>
<path d="M517.651 418.022L527.556 412.141C527.748 412.018 527.977 411.964 528.204 411.989C528.43 412.014 528.642 412.116 528.802 412.278L535.917 418.957C536.09 419.108 536.223 419.299 536.307 419.513C536.391 419.727 536.421 419.958 536.397 420.186C536.373 420.415 536.294 420.634 536.167 420.826C536.04 421.017 535.869 421.175 535.668 421.287C532.054 423.355 526.759 426.271 522.261 428.875C517.015 432.002 514.785 433.697 508.692 437.348C504.954 439.566 501.453 436.563 502.786 435.304C508.854 429.598 512.355 427.268 515.993 420.003C516.344 419.197 516.919 418.51 517.651 418.022Z" fill="#263238"/>
<path d="M514.835 421.835C515.802 421.24 516.712 420.556 517.551 419.791C517.587 419.754 517.613 419.708 517.624 419.657C517.635 419.606 517.631 419.554 517.613 419.505C517.594 419.456 517.559 419.414 517.514 419.387C517.469 419.36 517.416 419.349 517.364 419.355C516.803 419.355 511.907 419.779 511.246 421.05C511.176 421.164 511.138 421.296 511.138 421.43C511.138 421.564 511.176 421.696 511.246 421.81C511.356 422.012 511.511 422.186 511.699 422.318C511.887 422.45 512.103 422.536 512.33 422.57C513.223 422.605 514.103 422.347 514.835 421.835ZM516.641 419.916C514.872 421.411 513.327 422.209 512.442 422.072C512.289 422.049 512.143 421.991 512.015 421.902C511.888 421.814 511.782 421.697 511.707 421.561C511.681 421.518 511.667 421.468 511.667 421.417C511.667 421.367 511.681 421.317 511.707 421.274C512.106 420.601 514.66 420.115 516.641 419.916Z" fill="#03A879"/>
<path d="M517.514 419.816C517.556 419.783 517.591 419.741 517.613 419.692C517.638 419.655 517.651 419.612 517.651 419.567C517.651 419.523 517.638 419.48 517.613 419.443C517.489 419.293 514.511 415.705 512.492 417.275C511.956 417.673 511.956 418.06 512.056 418.309C512.505 419.418 515.994 420.028 517.451 419.854L517.514 419.816ZM512.879 417.599C514.187 416.838 516.081 418.583 516.853 419.38C515.246 419.38 512.754 418.782 512.48 418.134C512.48 418.134 512.405 417.947 512.741 417.698L512.879 417.599Z" fill="#03A879"/>
<path d="M458.142 225.814C458.142 225.814 458.142 282.457 459.624 314.965C461.145 348.782 503.384 406.97 503.384 406.97L519.644 397.002C519.644 397.002 491.111 341.63 491.547 308.05C492.02 271.43 494.861 224.992 494.861 224.992L458.142 225.814Z" fill="#263238"/>
<path d="M521.738 396.99L503.733 407.979L499.235 403.506L519.046 390.299L521.738 396.99Z" fill="#03A879"/>
<path opacity="0.4" d="M521.738 396.99L503.733 407.979L499.235 403.506L519.046 390.299L521.738 396.99Z" fill="white"/>
<path d="M437.134 135.068C437.134 135.068 425.359 167.19 438.442 226.25L494.861 225.004C495.061 216.345 488.719 174.217 496.207 133.236C489.926 132.185 483.583 131.549 477.218 131.33C469.224 131.029 461.219 131.2 453.245 131.841C447.799 132.495 442.412 133.574 437.134 135.068Z" fill="#03A879"/>
<path d="M474.315 104.329C472.969 112.067 471.761 126.246 477.268 131.28C477.268 131.28 475.324 139.192 460.995 139.454C449.544 139.666 453.295 131.791 453.295 131.791C461.855 129.548 461.493 123.169 459.861 117.213L474.315 104.329Z" fill="#FF8B7B"/>
<path opacity="0.2" d="M468.421 109.575L459.874 117.2C460.272 118.585 460.547 120.003 460.696 121.437C463.973 120.901 468.421 117.188 468.695 113.736C468.859 112.344 468.766 110.934 468.421 109.575Z" fill="black"/>
<path opacity="0.2" d="M483.622 153.671L493.03 160.449C492.619 167.663 492.494 174.678 492.556 181.257C486.787 175.451 483.56 164.773 483.622 153.671Z" fill="black"/>
<path d="M475.212 127.43C475.212 127.43 472.508 133.934 459.886 139.466C461.916 140.282 463.754 141.512 465.281 143.078C466.809 144.645 467.993 146.512 468.758 148.562C468.758 148.562 477.941 139.84 480.395 131.118L475.212 127.43Z" fill="white"/>
<path d="M450.454 146.207C450.454 146.207 454.317 140.6 459.886 139.466C457.93 137.074 455.911 131.766 457.78 129.249C456.139 129.682 454.547 130.288 453.033 131.056C453.033 131.056 445.457 135.604 450.454 146.207Z" fill="white"/>
<path d="M449.345 82.1753C444.199 84.3808 441.645 98.2363 448.348 101.252C455.052 104.267 459.089 78.0137 449.345 82.1753Z" fill="#263238"/>
<path d="M474.988 92.704C474.564 103.17 474.851 109.313 469.692 114.783C461.93 123.019 448.934 118.521 446.217 108.142C443.725 98.7969 444.872 83.222 455.002 78.8859C457.232 77.9096 459.675 77.5198 462.099 77.7536C464.522 77.9874 466.845 78.837 468.848 80.2216C470.851 81.6062 472.466 83.4799 473.541 85.6646C474.615 87.8493 475.113 90.2726 474.988 92.704Z" fill="#FF8B7B"/>
<path d="M459.201 95.9561C459.201 96.8034 458.79 97.5011 458.229 97.5136C457.668 97.526 457.207 96.8407 457.195 95.9935C457.182 95.1462 457.606 94.4484 458.167 94.436C458.727 94.4235 459.188 95.0963 459.201 95.9561Z" fill="#263238"/>
<path d="M449.582 96.1554C449.582 97.0027 449.171 97.7005 448.61 97.7129C448.049 97.7254 447.588 97.0525 447.576 96.1928C447.563 95.3331 447.987 94.6478 448.548 94.6353C449.108 94.6228 449.569 95.3081 449.582 96.1554Z" fill="#263238"/>
<path d="M452.659 96.5167C451.698 99.1387 450.382 101.616 448.747 103.881C449.336 104.283 450.006 104.551 450.71 104.668C451.413 104.784 452.134 104.745 452.821 104.553L452.659 96.5167Z" fill="#FF5652"/>
<path d="M455.351 106.846C456.495 106.856 457.625 106.589 458.645 106.068C459.665 105.548 460.543 104.789 461.207 103.856C461.225 103.828 461.236 103.798 461.241 103.765C461.247 103.733 461.245 103.7 461.237 103.669C461.229 103.637 461.214 103.607 461.194 103.582C461.174 103.556 461.148 103.535 461.12 103.519C461.065 103.486 460.999 103.475 460.936 103.489C460.874 103.503 460.819 103.541 460.783 103.594C460.155 104.448 459.335 105.143 458.389 105.621C457.444 106.099 456.398 106.348 455.338 106.348C455.306 106.349 455.273 106.357 455.244 106.371C455.214 106.385 455.188 106.405 455.166 106.429C455.144 106.454 455.127 106.482 455.116 106.513C455.105 106.544 455.1 106.577 455.102 106.609C455.105 106.673 455.132 106.734 455.179 106.778C455.225 106.822 455.287 106.846 455.351 106.846Z" fill="#263238"/>
<path d="M462.029 92.7912C462.142 92.7877 462.251 92.7484 462.341 92.6791C462.443 92.5961 462.508 92.4763 462.522 92.3456C462.536 92.2149 462.498 92.084 462.416 91.9813C461.937 91.3475 461.315 90.837 460.6 90.4924C459.885 90.1478 459.097 89.9791 458.304 90.0002C458.172 90.0117 458.049 90.0753 457.964 90.177C457.879 90.2786 457.837 90.41 457.849 90.5422C457.861 90.6744 457.924 90.7965 458.026 90.8818C458.127 90.9671 458.259 91.0085 458.391 90.997C459.018 90.9911 459.638 91.1324 460.2 91.4094C460.763 91.6863 461.253 92.0913 461.631 92.5919C461.676 92.6545 461.736 92.7053 461.806 92.7399C461.875 92.7746 461.952 92.7922 462.029 92.7912Z" fill="#263238"/>
<path d="M445.295 92.9408C445.391 92.9398 445.485 92.9125 445.566 92.862C445.647 92.8114 445.713 92.7396 445.757 92.6542C446.002 92.0704 446.385 91.5546 446.874 91.1511C447.362 90.7475 447.94 90.4681 448.56 90.3367C448.691 90.3151 448.809 90.2432 448.888 90.1362C448.967 90.0291 449.002 89.8954 448.984 89.7635C448.959 89.6335 448.887 89.5176 448.78 89.439C448.674 89.3604 448.542 89.325 448.41 89.3399C447.635 89.5064 446.911 89.8556 446.297 90.3583C445.684 90.8611 445.2 91.503 444.884 92.2306C444.855 92.2892 444.838 92.3532 444.834 92.4186C444.83 92.484 444.84 92.5496 444.862 92.6113C444.884 92.673 444.918 92.7295 444.963 92.7776C445.007 92.8257 445.061 92.8642 445.121 92.891C445.175 92.9187 445.235 92.9356 445.295 92.9408Z" fill="#263238"/>
<path d="M498.014 140.675C500.369 144.064 502.437 147.379 504.568 150.793C506.698 154.207 508.667 157.646 510.623 161.134C514.59 168.2 518.118 175.503 521.189 183.002C521.588 183.936 521.937 184.933 522.298 185.905L522.847 187.375L523.121 188.123L523.445 189.144C524.239 191.83 524.526 194.64 524.292 197.43C523.799 202.307 522.173 207 519.545 211.136C517.256 214.83 514.533 218.235 511.433 221.279C509.95 222.774 508.38 224.157 506.786 225.49C505.17 226.824 503.486 228.072 501.739 229.228L496.668 223.148C497.777 221.902 499.035 220.357 500.157 218.924C501.278 217.491 502.375 215.958 503.409 214.463C505.425 211.59 507.157 208.527 508.58 205.318C509.819 202.646 510.47 199.74 510.486 196.795C510.442 195.671 510.206 194.563 509.788 193.518L508.792 191.3C508.405 190.478 508.056 189.643 507.633 188.808C504.418 182.142 500.705 175.513 496.805 168.959C492.905 162.405 488.818 155.826 484.769 149.534L498.014 140.675Z" fill="#FF8B7B"/>
<path d="M496.207 133.261C506.063 135.392 520.242 165.794 520.242 165.794L493.84 178.678C489.144 171.496 485.242 163.826 482.202 155.801C477.604 142.955 485.653 130.969 496.207 133.261Z" fill="#03A879"/>
<path d="M486.825 211.448L513.352 289.809C514.383 292.884 514.155 296.242 512.72 299.15C511.284 302.059 508.757 304.282 505.689 305.334L327.374 365.79C324.296 366.823 320.933 366.594 318.023 365.153C315.114 363.712 312.893 361.176 311.849 358.102L285.334 279.766C284.823 278.281 284.611 276.71 284.711 275.143C284.854 272.709 285.718 270.372 287.194 268.431C288.67 266.489 290.69 265.031 292.997 264.241L471.349 203.785C473.659 203.008 476.148 202.936 478.498 203.58C480.848 204.224 482.953 205.553 484.544 207.398C485.564 208.584 486.339 209.961 486.825 211.448Z" fill="#03A879"/>
<path opacity="0.8" d="M486.825 211.448L513.352 289.809C514.383 292.884 514.155 296.242 512.72 299.15C511.284 302.059 508.757 304.282 505.689 305.334L327.374 365.79C324.296 366.823 320.933 366.594 318.023 365.153C315.114 363.712 312.893 361.176 311.849 358.102L285.334 279.766C284.823 278.281 284.611 276.71 284.711 275.143C284.854 272.709 285.718 270.372 287.194 268.431C288.67 266.489 290.69 265.031 292.997 264.241L471.349 203.785C473.659 203.008 476.148 202.936 478.498 203.58C480.848 204.224 482.953 205.553 484.544 207.398C485.564 208.584 486.339 209.961 486.825 211.448Z" fill="white"/>
<path opacity="0.6" d="M484.495 207.398L410.719 273.374C407.01 276.687 402.671 279.217 397.96 280.812C393.25 282.407 388.266 283.035 383.307 282.657L284.649 275.181C284.792 272.746 285.656 270.409 287.132 268.468C288.607 266.526 290.627 265.068 292.935 264.278L471.287 203.822C473.595 203.038 476.084 202.959 478.436 203.596C480.789 204.233 482.898 205.557 484.495 207.398Z" fill="#03A879"/>
<path d="M499.334 221.69L487.996 221.765L494.986 233.215C494.986 233.215 503.06 231.259 503.808 227.197L499.334 221.69Z" fill="#FF8B7B"/>
<path d="M480.906 228.481L487.124 237.689L494.986 233.215L487.996 221.765L480.906 228.481Z" fill="#FF8B7B"/>
<path d="M482.127 84.3184C484.619 91.1465 477.081 106.958 472.695 106.659C468.309 106.36 467.113 89.9254 469.605 85.8386C467.238 86.935 444.685 86.9724 444.797 84.5926C445.37 75.9453 460.708 72.8054 477.529 77.1166C481.903 76.9047 483.535 78.1009 482.127 84.3184Z" fill="#263238"/>
<path d="M479.947 104.105C479.279 105.226 478.396 106.203 477.348 106.979C476.3 107.756 475.108 108.316 473.841 108.628C470.452 109.45 468.857 106.398 469.929 103.258C470.863 100.429 473.754 96.604 477.118 97.1771C480.483 97.7503 481.591 101.326 479.947 104.105Z" fill="#FF8B7B"/>
<path d="M431.353 80.244L483.112 86.2248C483.372 86.2529 483.634 86.1771 483.839 86.0138C484.044 85.8506 484.177 85.613 484.208 85.3526C484.236 85.0937 484.162 84.8341 484.002 84.6292C483.841 84.4243 483.606 84.2904 483.348 84.2561L431.577 78.2878C431.318 78.2595 431.059 78.3336 430.854 78.4942C430.649 78.6549 430.515 78.8894 430.481 79.1475C430.452 79.4083 430.528 79.6696 430.691 79.8748C430.855 80.0801 431.092 80.2127 431.353 80.244Z" fill="#03A879"/>
<path d="M484.208 85.3028L485.105 77.5776C485.096 76.7329 484.771 75.9223 484.195 75.3046C483.618 74.6869 482.832 74.3066 481.99 74.2383L450.205 68.2326C447.85 67.784 445.682 69.1048 445.694 70.9738V80.867L484.208 85.3028Z" fill="#03A879"/>
<path d="M448.66 78.5868L462.117 80.1443L462.578 76.2194L448.672 74.6245L448.66 78.5868Z" fill="white"/>
</svg>
