<svg width="786" height="459" viewBox="0 0 786 459" fill="none" xmlns="http://www.w3.org/2000/svg">
<path d="M353.122 187.756C314.323 197.768 292.827 186.501 258.295 176.819C223.763 167.138 185.535 158.328 153.645 175.419C115.876 195.681 100.731 246.929 106.312 291.573C111.733 334.897 156.82 373.465 192.667 394.743C219.745 410.805 251.659 414.278 282.607 416.313C366.592 421.834 431.017 421.966 508.69 387.492C586.362 353.018 653.9 282.182 668.326 193.898C674.416 156.584 670.062 115.52 648.095 85.7482C619.852 47.4441 566.913 36.2699 523.425 51.2745C479.938 66.2791 445.579 103.328 422.608 145.41C407.215 173.61 382.37 178.14 353.147 187.769" fill="#F5F5F5"/>
<path d="M278.647 59.2462L209.903 75.0598L230.225 175.232L298.968 159.419L278.647 59.2462Z" fill="white"/>
<path d="M298.942 159.437L298.831 158.949C298.756 158.618 298.657 158.143 298.533 157.535C298.26 156.215 297.876 154.445 297.38 152.08C296.4 147.286 294.961 140.325 293.138 131.515C289.528 113.895 284.455 88.905 278.352 59.3316L278.7 59.5694L209.97 75.4193L210.219 75.0099C217.785 112.429 224.793 147.074 230.474 175.195L230.164 174.97L280.114 163.638L294.018 160.507L297.739 159.702L298.98 159.437C298.98 159.437 298.583 159.556 297.739 159.754L294.13 160.613L280.312 163.862L230.263 175.525H230.002V175.261C224.284 147.14 217.239 112.508 209.623 75.1023V74.7589H209.933L278.675 58.9089H278.96L279.022 59.2127C284.976 88.905 290.012 113.988 293.559 131.66C295.308 140.457 296.697 147.405 297.64 152.186C298.111 154.537 298.459 156.36 298.707 157.601L298.967 158.988C298.966 159.138 298.957 159.288 298.942 159.437Z" fill="#263238"/>
<path d="M255.964 85.5369C255.964 85.735 248.521 87.5974 239.33 89.7239C230.139 91.8504 222.597 93.409 222.56 93.2241C222.523 93.0392 230.002 91.1768 239.194 89.0503C248.385 86.9238 255.964 85.352 255.964 85.5369Z" fill="#263238"/>
<path d="M275.809 90.0937C275.809 90.2786 264.348 93.0788 250.146 96.3412C235.944 99.6037 224.371 102.113 224.334 101.928C224.297 101.743 235.795 98.9433 250.01 95.6808C264.224 92.4184 275.809 89.9088 275.809 90.0937Z" fill="#263238"/>
<path d="M277.682 99.168C277.682 99.3529 266.234 102.153 252.019 105.429C237.804 108.704 226.257 111.148 226.195 111.016C226.133 110.884 237.643 108.031 251.858 104.755C266.073 101.479 277.645 98.9831 277.682 99.168Z" fill="#263238"/>
<path d="M279.531 108.255C279.531 108.44 268.07 111.24 253.867 114.503C239.665 117.765 228.092 120.275 228.055 120.09C228.018 119.905 239.504 117.105 253.731 113.842C267.958 110.58 279.531 108.07 279.531 108.255Z" fill="#263238"/>
<path d="M281.366 117.329C281.366 117.514 269.918 120.315 255.703 123.59C241.488 126.866 229.916 129.362 229.916 129.177C229.916 128.992 241.364 126.192 255.579 122.917C269.794 119.641 281.329 117.145 281.366 117.329Z" fill="#263238"/>
<path d="M283.252 126.417C283.252 126.602 271.791 129.402 257.588 132.664C243.386 135.927 231.813 138.436 231.776 138.251C231.739 138.066 243.225 135.266 257.452 131.991C271.679 128.715 283.177 126.232 283.252 126.417Z" fill="#263238"/>
<path d="M285.05 135.491C285.05 135.676 273.602 138.476 259.387 141.752C245.172 145.027 233.637 147.524 233.637 147.339C233.637 147.154 245.085 144.354 259.3 141.078C273.515 137.802 285.013 135.306 285.05 135.491Z" fill="#263238"/>
<path d="M263.096 150.047C263.096 150.231 256.968 151.816 249.327 153.573C241.687 155.33 235.46 156.598 235.423 156.413C235.386 156.228 241.55 154.656 249.191 152.9C256.832 151.143 263.058 149.862 263.096 150.047Z" fill="#263238"/>
<path d="M600.254 315.678L617.843 363.77L625.186 351.156L635.344 365.368L647.463 353.098L635.915 341.237L646.57 333.563L600.254 315.678Z" fill="#03A879"/>
<path d="M593.63 322.785C591.619 324.551 589.474 326.136 587.218 327.526C585.078 329.108 582.816 330.496 580.458 331.674C582.474 329.919 584.618 328.338 586.87 326.945C589.012 325.362 591.273 323.971 593.63 322.785Z" fill="#263238"/>
<path d="M594.995 313.09C594.025 312.952 593.075 312.686 592.167 312.297C590.455 311.716 588.098 310.831 585.556 309.656C583.013 308.48 580.731 307.476 579.106 306.657C578.198 306.276 577.333 305.788 576.526 305.204C577.476 305.429 578.399 305.766 579.279 306.208L585.791 309.022L592.328 311.782C593.259 312.115 594.153 312.553 594.995 313.09Z" fill="#263238"/>
<path d="M600.304 291.256C600.626 292.103 600.843 292.991 600.949 293.898C601.246 295.549 601.606 297.86 601.904 300.41C602.201 302.959 602.4 305.297 602.487 307.014C602.601 307.925 602.601 308.849 602.487 309.761C601.925 306.704 601.511 303.618 601.246 300.515C600.778 297.449 600.463 294.358 600.304 291.256Z" fill="#263238"/>
<path d="M624.652 302.021C624.727 302.206 621.477 303.699 617.805 306.208C614.134 308.718 611.231 310.897 611.12 310.726C611.008 310.554 611.727 310.012 612.869 309.074C614.342 307.843 615.874 306.692 617.458 305.627C619.65 304.005 622.082 302.786 624.652 302.021Z" fill="#263238"/>
<path d="M190.98 323.868C190.841 321.906 190.563 319.959 190.149 318.043C189.619 315.82 188.783 313.692 187.669 311.729C186.19 309.123 184.257 306.841 181.975 305.006C179.006 302.611 175.519 301.049 171.834 300.463C168.15 299.876 164.386 300.285 160.889 301.651C158.875 302.419 156.98 303.505 155.27 304.874C153.456 306.264 151.872 307.964 150.581 309.906C147.777 313.949 146.264 318.842 146.264 323.868C146.264 328.893 147.777 333.786 150.581 337.829C151.877 339.763 153.461 341.458 155.27 342.848C156.977 344.221 158.872 345.308 160.889 346.071C164.386 347.437 168.15 347.846 171.834 347.259C175.519 346.673 179.006 345.111 181.975 342.716C184.254 340.882 186.186 338.605 187.669 336.006C188.784 334.039 189.62 331.907 190.149 329.679C190.563 327.767 190.841 325.824 190.98 323.868C190.98 323.868 190.98 324 190.98 324.251V325.4C190.984 326.02 190.934 326.639 190.831 327.249C190.753 328.092 190.612 328.926 190.41 329.745C189.903 332.018 189.066 334.193 187.929 336.191C186.292 339.15 184.084 341.706 181.449 343.687C178.814 345.668 175.814 347.03 172.648 347.682C168.644 348.486 164.511 348.134 160.678 346.665C158.606 345.895 156.66 344.785 154.91 343.376C153.044 341.952 151.41 340.212 150.073 338.225C147.182 334.069 145.621 329.033 145.621 323.861C145.621 318.689 147.182 313.653 150.073 309.497C150.767 308.512 151.517 307.572 152.318 306.684C153.136 305.848 154.001 305.067 154.91 304.346C156.667 302.947 158.611 301.838 160.678 301.057C164.511 299.585 168.645 299.238 172.648 300.053C175.815 300.7 178.816 302.058 181.451 304.037C184.086 306.017 186.294 308.571 187.929 311.531C189.064 313.53 189.9 315.705 190.41 317.977C190.612 318.796 190.753 319.63 190.831 320.473C190.934 321.088 190.983 321.711 190.98 322.335V323.471C190.993 323.802 190.98 323.868 190.98 323.868Z" fill="#263238"/>
<path d="M168.468 335.9C168.148 331.899 168.041 327.882 168.145 323.868C168.041 319.853 168.148 315.836 168.468 311.835C168.803 315.835 168.914 319.853 168.802 323.868C168.914 327.882 168.803 331.9 168.468 335.9Z" fill="#263238"/>
<path d="M179.767 323.868C176.014 324.208 172.246 324.323 168.48 324.211C164.71 324.323 160.938 324.208 157.18 323.868C160.937 323.519 164.71 323.405 168.48 323.524C172.246 323.405 176.014 323.519 179.767 323.868Z" fill="#263238"/>
<path d="M536.288 401.321C536.139 401.414 520.56 375.763 501.496 344.01C482.431 312.257 467.088 286.422 467.236 286.33C467.385 286.237 482.952 311.914 501.979 343.614C521.007 375.314 536.375 401.215 536.288 401.321Z" fill="#263238"/>
<path d="M542.998 457.351C562.967 457.351 579.155 440.113 579.155 418.849C579.155 397.584 562.967 380.346 542.998 380.346C523.03 380.346 506.842 397.584 506.842 418.849C506.842 440.113 523.03 457.351 542.998 457.351Z" fill="white"/>
<path d="M506.842 418.901C506.842 418.901 506.842 418.69 506.842 418.281C506.842 417.871 506.842 417.224 506.904 416.445C506.904 416.035 506.904 415.586 506.904 415.124C506.904 414.662 507.028 414.094 507.102 413.513C507.25 412.176 507.486 410.851 507.809 409.55C508.618 405.912 509.949 402.428 511.753 399.221C514.372 394.458 517.915 390.346 522.146 387.159C526.377 383.973 531.199 381.785 536.288 380.743C537.808 380.44 539.345 380.246 540.89 380.162C541.671 380.162 542.465 380.043 543.259 380.056L545.678 380.188C546.51 380.213 547.339 380.306 548.158 380.465C548.965 380.597 549.796 380.703 550.639 380.875C553.978 381.682 557.207 382.933 560.252 384.599C561.021 385.049 561.765 385.564 562.534 386.039C563.301 386.52 564.035 387.058 564.73 387.651C567.714 389.922 570.322 392.707 572.445 395.893C574.721 399.127 576.485 402.737 577.667 406.578C580.172 414.532 580.172 423.139 577.667 431.093C576.478 434.939 574.714 438.556 572.445 441.805C571.344 443.384 570.147 444.884 568.86 446.295C567.561 447.641 566.177 448.89 564.717 450.033C564.023 450.626 563.289 451.164 562.522 451.645C561.753 452.134 561.009 452.649 560.24 453.085C558.706 453.941 557.119 454.682 555.489 455.304C553.897 455.918 552.268 456.421 550.614 456.809C549.808 456.994 548.977 457.087 548.134 457.232C547.314 457.392 546.485 457.484 545.653 457.509L543.234 457.628C542.44 457.628 541.646 457.562 540.865 457.523C539.316 457.444 537.774 457.249 536.251 456.941C531.186 455.904 526.385 453.733 522.166 450.573C517.947 447.412 514.407 443.334 511.778 438.608C509.978 435.399 508.648 431.916 507.834 428.279C507.513 426.977 507.277 425.653 507.127 424.317C507.052 423.723 506.966 423.194 506.928 422.692C506.891 422.19 506.928 421.754 506.928 421.371C506.928 420.592 506.928 419.985 506.866 419.535C506.804 419.086 506.866 418.915 506.866 418.915C506.866 418.915 506.866 419.126 506.928 419.535C506.99 419.945 506.99 420.579 507.04 421.358L507.127 422.679C507.127 423.168 507.276 423.709 507.35 424.29C507.522 425.628 507.779 426.952 508.119 428.253C508.962 431.848 510.313 435.286 512.126 438.45C514.752 443.097 518.271 447.102 522.452 450.2C526.633 453.298 531.382 455.42 536.387 456.426C537.887 456.719 539.404 456.904 540.927 456.981C541.708 456.981 542.477 457.087 543.271 457.073L545.64 456.941C546.444 456.915 547.244 456.822 548.034 456.664C548.841 456.519 549.647 456.426 550.453 456.241C552.073 455.851 553.668 455.353 555.228 454.749C556.832 454.131 558.394 453.398 559.905 452.556C560.661 452.12 561.393 451.605 562.137 451.13C562.896 450.658 563.621 450.128 564.308 449.545C565.74 448.419 567.095 447.188 568.364 445.86C569.633 444.474 570.81 442.995 571.887 441.435C574.118 438.23 575.848 434.662 577.009 430.868C579.465 423.055 579.465 414.603 577.009 406.789C575.848 402.996 574.118 399.428 571.887 396.223C570.815 394.663 569.642 393.184 568.376 391.798C567.101 390.477 565.746 389.246 564.32 388.113C563.634 387.529 562.908 387 562.15 386.528C561.406 386.052 560.674 385.55 559.917 385.101C558.409 384.258 556.846 383.53 555.241 382.922C553.682 382.308 552.087 381.805 550.465 381.416C549.659 381.245 548.853 381.139 548.047 381.007C547.257 380.844 546.457 380.747 545.653 380.716L543.284 380.584C542.502 380.584 541.721 380.663 540.939 380.69C539.42 380.759 537.907 380.945 536.412 381.245C531.401 382.238 526.645 384.355 522.46 387.454C518.275 390.553 514.757 394.564 512.138 399.221C510.323 402.383 508.972 405.822 508.132 409.418C507.789 410.718 507.532 412.042 507.362 413.38C507.288 413.962 507.189 414.49 507.139 414.992C507.09 415.494 507.077 415.93 507.052 416.313C507.052 417.092 506.966 417.633 506.941 418.149C506.916 418.664 506.842 418.901 506.842 418.901Z" fill="#263238"/>
<path d="M533.137 404.702L528.188 434.817L542.998 432.651L557.808 434.817L551.842 404.702H533.137Z" fill="#263238"/>
<path d="M549.25 405.099C549.138 405.099 548.841 404.016 548.01 402.457C547.565 401.533 546.964 400.705 546.236 400.014C545.794 399.643 545.306 399.34 544.785 399.115C544.214 398.906 543.614 398.799 543.011 398.798C541.832 398.737 540.662 399.035 539.637 399.657C538.837 400.237 538.199 401.035 537.789 401.968C537.045 403.58 536.797 404.703 536.685 404.676C536.722 403.662 536.959 402.668 537.38 401.757C537.769 400.694 538.441 399.776 539.314 399.115C540.427 398.378 541.727 398.023 543.036 398.098C543.713 398.103 544.384 398.233 545.02 398.481C545.609 398.731 546.154 399.084 546.633 399.525C547.399 400.288 548.011 401.209 548.431 402.233C548.882 403.12 549.16 404.095 549.25 405.099Z" fill="#263238"/>
<path d="M398.718 403.897C398.532 403.897 398.396 377.388 398.396 344.684C398.396 311.98 398.532 285.471 398.718 285.471C398.904 285.471 399.041 311.967 399.041 344.684C399.041 377.401 398.892 403.897 398.718 403.897Z" fill="#263238"/>
<path d="M397.974 458.209C417.943 458.209 434.131 440.971 434.131 419.707C434.131 398.443 417.943 381.205 397.974 381.205C378.005 381.205 361.817 398.443 361.817 419.707C361.817 440.971 378.005 458.209 397.974 458.209Z" fill="white"/>
<path d="M361.817 419.707C361.817 419.707 361.817 419.496 361.817 419.086C361.817 418.677 361.817 418.03 361.817 417.25C361.817 416.841 361.817 416.392 361.817 415.93C361.817 415.467 361.953 414.899 362.028 414.318C362.165 412.98 362.401 411.655 362.735 410.356C363.543 406.717 364.873 403.233 366.679 400.027C369.3 395.293 372.838 391.208 377.058 388.044C381.278 384.881 386.083 382.711 391.152 381.681C392.672 381.379 394.209 381.185 395.754 381.099C396.548 381.099 397.341 380.994 398.135 380.994L400.541 381.126C401.374 381.149 402.203 381.242 403.022 381.403C403.841 381.535 404.66 381.641 405.503 381.813C407.16 382.174 408.792 382.65 410.39 383.239C412.023 383.858 413.614 384.595 415.153 385.445C415.922 385.894 416.666 386.409 417.423 386.885C418.213 387.376 418.971 387.923 419.693 388.522C421.145 389.676 422.528 390.925 423.836 392.26C425.119 393.676 426.312 395.181 427.408 396.764C429.675 400.01 431.438 403.622 432.63 407.463C435.144 415.415 435.144 424.025 432.63 431.978C431.448 435.823 429.684 439.437 427.408 442.676C426.315 444.259 425.122 445.759 423.836 447.167C422.532 448.507 421.148 449.755 419.693 450.905C418.994 451.498 418.256 452.036 417.485 452.517C416.728 453.005 415.984 453.521 415.215 453.956C413.677 454.81 412.085 455.552 410.452 456.175C408.864 456.79 407.24 457.293 405.59 457.681C404.771 457.866 403.953 457.958 403.109 458.104C402.29 458.265 401.461 458.358 400.628 458.381L398.222 458.5C397.416 458.5 396.634 458.434 395.84 458.394C394.296 458.316 392.758 458.122 391.239 457.813C386.172 456.781 381.369 454.612 377.15 451.451C372.93 448.29 369.391 444.209 366.766 439.48C364.96 436.274 363.63 432.79 362.822 429.151C362.489 427.852 362.253 426.527 362.115 425.189C362.04 424.594 361.953 424.066 361.904 423.564C361.854 423.062 361.904 422.626 361.904 422.243C361.904 421.464 361.904 420.856 361.904 420.407C361.904 419.958 361.904 419.786 361.904 419.786C361.935 419.992 361.956 420.199 361.966 420.407C361.966 420.843 362.04 421.451 362.09 422.23C362.09 422.635 362.115 423.075 362.164 423.551C362.164 424.04 362.313 424.581 362.4 425.162C362.567 426.5 362.82 427.824 363.157 429.125C364.01 432.718 365.365 436.156 367.175 439.322C369.801 443.942 373.311 447.922 377.476 451.003C381.641 454.084 386.368 456.197 391.35 457.206C392.85 457.498 394.367 457.684 395.89 457.76C396.659 457.76 397.441 457.866 398.222 457.853L400.603 457.721C401.407 457.693 402.207 457.6 402.997 457.443C403.791 457.298 404.61 457.206 405.404 457.021C407.029 456.637 408.628 456.138 410.192 455.528C411.795 454.91 413.357 454.177 414.868 453.336C415.624 452.9 416.344 452.385 417.1 451.922C417.852 451.441 418.573 450.907 419.259 450.324C420.691 449.199 422.051 447.973 423.327 446.652C424.589 445.258 425.762 443.775 426.837 442.214C429.071 439.011 430.801 435.442 431.96 431.648C434.424 423.836 434.424 415.381 431.96 407.569C430.799 403.775 429.069 400.207 426.837 397.002C425.758 395.448 424.586 393.97 423.327 392.577C422.047 391.256 420.688 390.025 419.259 388.892C418.576 388.309 417.855 387.779 417.1 387.307C416.344 386.832 415.624 386.33 414.868 385.894C413.362 385.041 411.799 384.308 410.192 383.701C408.629 383.087 407.029 382.584 405.404 382.196C404.61 382.024 403.791 381.918 402.997 381.786C402.208 381.622 401.407 381.529 400.603 381.509L398.234 381.377C397.441 381.377 396.659 381.443 395.89 381.469C394.366 381.539 392.849 381.725 391.35 382.024C386.345 383.031 381.596 385.153 377.415 388.251C373.234 391.349 369.715 395.353 367.089 400C365.277 403.166 363.922 406.603 363.07 410.197C362.731 411.498 362.478 412.822 362.313 414.16C362.226 414.741 362.127 415.269 362.077 415.771C362.028 416.273 362.077 416.709 362.003 417.092C362.003 417.871 361.916 418.479 361.879 418.928C361.875 419.189 361.854 419.449 361.817 419.707Z" fill="#263238"/>
<path d="M397.974 402.457L382.296 417.633V436.878H394.501V425.347H402.278V436.878H413.665V417.633L397.974 402.457Z" fill="#263238"/>
<path d="M258.754 402.655C258.606 402.563 274.172 376.344 293.485 344.129C312.797 311.914 328.649 285.854 328.798 286.013C328.947 286.171 313.38 312.31 294.068 344.552C274.755 376.793 258.903 402.761 258.754 402.655Z" fill="#263238"/>
<path d="M252.9 457.721C272.869 457.721 289.057 440.483 289.057 419.219C289.057 397.954 272.869 380.716 252.9 380.716C232.931 380.716 216.743 397.954 216.743 419.219C216.743 440.483 232.931 457.721 252.9 457.721Z" fill="white"/>
<path d="M289.057 419.218C289.025 419.013 289.005 418.806 288.995 418.598C288.995 418.149 288.92 417.541 288.871 416.762C288.871 416.365 288.871 415.916 288.796 415.441C288.722 414.965 288.647 414.411 288.561 413.829C288.402 412.49 288.149 411.166 287.804 409.867C286.958 406.27 285.603 402.832 283.785 399.67C281.159 395.022 277.64 391.018 273.459 387.92C269.278 384.822 264.529 382.7 259.523 381.694C258.024 381.394 256.507 381.209 254.984 381.139C254.215 381.139 253.433 381.033 252.652 381.046L250.27 381.178C249.466 381.2 248.666 381.292 247.876 381.456C247.082 381.588 246.264 381.694 245.47 381.865C243.844 382.254 242.245 382.757 240.682 383.371C239.077 383.983 237.514 384.716 236.006 385.564C235.249 386 234.53 386.501 233.773 386.977C233.021 387.452 232.299 387.982 231.615 388.562C230.188 389.698 228.829 390.929 227.547 392.247C226.288 393.64 225.115 395.118 224.036 396.672C221.805 399.877 220.075 403.445 218.914 407.238C216.45 415.05 216.45 423.505 218.914 431.317C220.072 435.112 221.802 438.68 224.036 441.884C225.112 443.445 226.285 444.928 227.547 446.322C228.823 447.642 230.182 448.869 231.615 449.994C232.297 450.581 233.018 451.115 233.773 451.592C234.53 452.054 235.249 452.569 236.006 453.005C237.519 453.842 239.081 454.575 240.682 455.198C242.243 455.814 243.843 456.313 245.47 456.69C246.264 456.875 247.082 456.968 247.876 457.113C248.667 457.27 249.467 457.363 250.27 457.39L252.652 457.522C253.433 457.522 254.215 457.523 254.984 457.43C256.507 457.355 258.024 457.17 259.523 456.875C264.53 455.874 269.282 453.754 273.463 450.656C277.645 447.557 281.163 443.55 283.785 438.899C285.601 435.736 286.956 432.298 287.804 428.702C288.146 427.403 288.399 426.078 288.561 424.739C288.647 424.158 288.747 423.617 288.796 423.128L288.871 421.807C288.871 421.028 288.97 420.486 288.995 419.984C289.005 419.777 289.025 419.569 289.057 419.364C289.057 419.364 289.057 419.575 289.057 419.984C289.057 420.394 289.057 421.041 289.057 421.82C289.057 422.23 289.057 422.679 289.057 423.141C289.057 423.604 288.92 424.185 288.846 424.766C288.707 426.103 288.474 427.428 288.151 428.728C287.338 432.367 286.004 435.851 284.194 439.057C281.558 443.776 278.009 447.844 273.783 450.991C269.558 454.139 264.752 456.293 259.685 457.311C258.165 457.62 256.628 457.814 255.083 457.892C254.301 457.892 253.508 458.011 252.701 457.998L250.295 457.879C249.463 457.856 248.633 457.763 247.814 457.602C246.996 457.456 246.177 457.364 245.333 457.179C243.684 456.791 242.059 456.288 240.471 455.673C238.838 455.05 237.247 454.308 235.708 453.454C234.939 453.018 234.195 452.503 233.438 452.015C232.667 451.534 231.93 450.996 231.23 450.403C229.776 449.253 228.392 448.005 227.088 446.665C225.802 445.257 224.608 443.757 223.515 442.174C221.248 438.929 219.485 435.316 218.293 431.476C215.78 423.523 215.78 414.913 218.293 406.961C219.485 403.12 221.248 399.508 223.515 396.262C224.616 394.678 225.813 393.174 227.1 391.758C228.4 390.42 229.78 389.171 231.23 388.02C231.933 387.432 232.67 386.894 233.438 386.409C234.207 385.933 234.939 385.418 235.708 384.969C237.247 384.12 238.838 383.383 240.471 382.763C242.057 382.143 243.682 381.64 245.333 381.258C246.152 381.073 246.971 380.967 247.814 380.835C248.633 380.674 249.463 380.581 250.295 380.558L252.701 380.426C253.508 380.426 254.289 380.505 255.083 380.531C256.627 380.616 258.165 380.81 259.685 381.112C264.754 382.143 269.558 384.313 273.778 387.476C277.998 390.64 281.536 394.725 284.157 399.459C285.966 402.665 287.301 406.149 288.114 409.788C288.438 411.088 288.67 412.413 288.809 413.75C288.883 414.331 288.982 414.873 289.019 415.362C289.057 415.85 289.019 416.313 289.019 416.682C289.019 417.462 289.019 418.069 289.019 418.518C289.019 418.967 289.057 419.218 289.057 419.218Z" fill="#263238"/>
<path d="M266.891 399.168H238.499V439.255H266.891V399.168Z" fill="#263238"/>
<path d="M254.066 405.574C250.976 406.032 247.841 406.032 244.751 405.574C247.841 405.117 250.976 405.117 254.066 405.574Z" fill="#455A64"/>
<path d="M262.289 411.214C259.191 411.554 256.075 411.669 252.962 411.558C249.853 411.669 246.741 411.554 243.647 411.214C246.741 410.874 249.853 410.76 252.962 410.871C256.075 410.76 259.191 410.875 262.289 411.214Z" fill="#455A64"/>
<path d="M262.289 414.648C259.191 414.988 256.075 415.103 252.962 414.992C249.853 415.103 246.741 414.988 243.647 414.648C246.74 414.292 249.853 414.173 252.962 414.292C256.075 414.173 259.192 414.292 262.289 414.648Z" fill="#455A64"/>
<path d="M262.289 418.069C259.191 418.409 256.075 418.524 252.962 418.413C249.853 418.524 246.741 418.409 243.647 418.069C246.741 417.729 249.853 417.615 252.962 417.726C256.075 417.615 259.191 417.73 262.289 418.069Z" fill="#455A64"/>
<path d="M262.289 421.543C259.191 421.883 256.075 421.998 252.962 421.886C249.853 421.998 246.741 421.883 243.647 421.543C246.74 421.186 249.853 421.067 252.962 421.186C256.075 421.068 259.192 421.187 262.289 421.543Z" fill="#455A64"/>
<path d="M262.289 424.924C259.191 425.264 256.075 425.379 252.962 425.268C249.853 425.379 246.741 425.264 243.647 424.924C246.741 424.584 249.853 424.47 252.962 424.581C256.075 424.47 259.191 424.585 262.289 424.924Z" fill="#455A64"/>
<path d="M262.289 428.345C259.192 428.702 256.075 428.821 252.962 428.702C249.853 428.821 246.74 428.702 243.647 428.345C246.741 428.005 249.853 427.891 252.962 428.002C256.075 427.891 259.191 428.006 262.289 428.345Z" fill="#455A64"/>
<path d="M262.289 431.779C259.191 432.119 256.075 432.234 252.962 432.123C249.853 432.234 246.741 432.119 243.647 431.779C246.741 431.439 249.853 431.325 252.962 431.436C256.075 431.325 259.191 431.44 262.289 431.779Z" fill="#455A64"/>
<path d="M565.04 220.645H244.937C228.64 220.645 215.428 234.713 215.428 252.067V255.515C215.428 272.869 228.64 286.937 244.937 286.937H565.04C581.337 286.937 594.548 272.869 594.548 255.515V252.067C594.548 234.713 581.337 220.645 565.04 220.645Z" fill="white"/>
<path d="M510.55 220.051V286.937H563.576C571.907 286.937 579.896 283.414 585.788 277.143C591.68 270.871 594.992 262.365 594.995 253.494C594.995 249.101 594.182 244.751 592.603 240.693C591.024 236.634 588.709 232.947 585.792 229.841C582.874 226.736 579.411 224.272 575.599 222.592C571.787 220.913 567.702 220.049 563.576 220.051H510.55Z" fill="#03A879"/>
<path d="M559.855 251.632C559.738 250.486 559.56 249.348 559.322 248.224C558.554 245.179 556.851 242.496 554.484 240.603C552.749 239.21 550.713 238.303 548.563 237.966C546.413 237.629 544.218 237.873 542.18 238.674C540.998 239.128 539.889 239.774 538.893 240.59C537.844 241.413 536.92 242.402 536.152 243.522C534.523 245.885 533.645 248.74 533.645 251.671C533.645 254.603 534.523 257.458 536.152 259.821C536.91 260.95 537.836 261.94 538.893 262.753C539.887 263.558 540.991 264.195 542.167 264.642C543.877 265.301 545.696 265.574 547.509 265.445C549.323 265.316 551.092 264.787 552.703 263.891C554.315 262.996 555.734 261.754 556.872 260.244C558.009 258.734 558.839 256.988 559.309 255.119C559.548 253.99 559.726 252.848 559.843 251.698C559.918 252.87 559.818 254.047 559.545 255.185C558.849 258.336 557.153 261.135 554.745 263.11C552.958 264.586 550.849 265.556 548.615 265.93C546.381 266.304 544.095 266.07 541.969 265.25C540.73 264.794 539.567 264.135 538.521 263.295C537.415 262.441 536.444 261.407 535.643 260.23C533.927 257.756 533.001 254.761 533.001 251.685C533.001 248.608 533.927 245.613 535.643 243.139C537.236 240.833 539.439 239.086 541.969 238.12C544.247 237.254 546.701 237.053 549.076 237.538C551.601 238.056 553.931 239.338 555.788 241.231C557.645 243.125 558.949 245.548 559.545 248.211C559.816 249.327 559.921 250.481 559.855 251.632Z" fill="white"/>
<path d="M572.16 271.391C569.502 269.774 566.95 267.969 564.519 265.989C561.968 264.182 559.539 262.187 557.25 260.019C559.911 261.63 562.464 263.435 564.891 265.421C567.442 267.228 569.871 269.223 572.16 271.391Z" fill="white"/>
<path d="M483.237 247.576H251.473V261.762H483.237V247.576Z" fill="#EBEBEB"/>
<path d="M565.04 286.937C565.04 286.937 565.772 286.937 567.186 286.792C568.065 286.736 568.939 286.616 569.803 286.435C571.006 286.235 572.196 285.948 573.363 285.577C576.628 284.52 579.699 282.876 582.442 280.716L583.683 279.738C584.08 279.369 584.464 278.972 584.861 278.589C585.699 277.791 586.486 276.935 587.218 276.027C588.024 275.129 588.657 274.032 589.426 272.989L590.393 271.285L590.889 270.4L591.311 269.462C592.555 266.829 593.432 264.017 593.916 261.115C594.015 260.349 594.127 259.569 594.238 258.79C594.35 258.011 594.325 257.192 594.362 256.386C594.362 254.775 594.362 253.084 594.362 251.393C594.185 243.406 591.141 235.795 585.855 230.125C580.569 224.454 573.444 221.156 565.945 220.909C557.486 220.829 548.506 220.909 539.104 220.909L244.949 221.014C237.819 221.043 230.942 223.831 225.599 228.86C220.313 233.815 216.904 240.652 216.011 248.091C215.891 249.002 215.82 249.919 215.8 250.839C215.8 251.75 215.738 252.675 215.8 253.599C215.779 255.438 215.845 257.276 215.999 259.107C216.377 262.738 217.373 266.265 218.938 269.515C222.019 275.993 227.118 281.129 233.364 284.044C236.436 285.44 239.707 286.275 243.039 286.514C244.689 286.633 246.363 286.62 248 286.62H310.962L443.21 286.699L532.356 286.805L556.605 286.871L532.356 286.937L443.21 287.043L310.962 287.122H247.988C246.313 287.122 244.651 287.122 242.952 287.016C237.778 286.67 232.779 284.884 228.456 281.836C224.133 278.788 220.638 274.585 218.318 269.647C216.72 266.327 215.702 262.724 215.316 259.015C215.153 257.158 215.083 255.293 215.106 253.427C215.106 252.503 215.106 251.578 215.168 250.641C215.182 249.699 215.252 248.759 215.379 247.827C216.285 240.226 219.765 233.238 225.165 228.173C230.645 223.02 237.7 220.17 245.011 220.156L539.166 220.261C548.58 220.261 557.536 220.261 566.02 220.327C573.612 220.586 580.821 223.935 586.163 229.685C591.505 235.435 594.573 243.148 594.734 251.235C594.734 252.952 594.734 254.616 594.734 256.254C594.734 257.073 594.648 257.879 594.598 258.671C594.548 259.464 594.375 260.256 594.263 261.022C593.77 263.95 592.875 266.785 591.609 269.436L591.187 270.387L590.678 271.259C590.343 271.853 590.021 272.421 589.686 272.989C588.991 274.041 588.246 275.055 587.453 276.027C586.724 276.946 585.932 277.807 585.084 278.603C584.675 278.999 584.278 279.395 583.844 279.752L582.604 280.742C579.836 282.899 576.739 284.53 573.45 285.563C572.274 285.928 571.076 286.206 569.865 286.395C568.996 286.567 568.118 286.673 567.235 286.712C565.772 286.924 565.04 286.937 565.04 286.937Z" fill="#263238"/>
<path d="M400.777 245.727C399.648 244.327 399.537 243.086 402.08 242.901C407.674 242.359 411.792 239.757 412.449 238.252C413.106 236.746 411.32 235.28 409.807 236.178C408.069 236.981 406.238 237.532 404.362 237.816C402.855 238.087 401.316 238.087 399.81 237.816C398.507 237.604 397.329 237.367 396.337 237.142C396.337 237.142 390.42 235.821 387.865 233.655L375.337 247.907L381.216 254.973C382.097 256.292 383.279 257.348 384.651 258.042C386.024 258.735 387.54 259.043 389.056 258.936C394.092 258.407 400.876 254.564 400.876 254.564C401.794 253.058 409.906 258.394 412.523 260.389C415.141 262.383 417.063 261.881 416.964 259.966C416.902 258.645 409.038 252.332 406.408 250.416C404.375 249.064 402.486 247.478 400.777 245.688" fill="#FFBE9D"/>
<path d="M393.422 258.104C393.422 258.196 393.062 258.354 392.405 258.341C391.559 258.283 390.749 257.962 390.074 257.417C389.399 256.872 388.89 256.128 388.609 255.277C388.411 254.63 388.473 254.194 388.547 254.181C389.025 255.183 389.678 256.079 390.47 256.822C391.366 257.45 392.369 257.885 393.422 258.104Z" fill="#EB996E"/>
<path d="M398.383 256.03C398.383 256.109 398.024 256.254 397.403 256.215C396.597 256.13 395.829 255.804 395.19 255.273C394.551 254.742 394.067 254.029 393.794 253.217C393.608 252.596 393.645 252.186 393.719 252.173C393.794 252.16 394.24 253.639 395.592 254.735C396.454 255.319 397.395 255.756 398.383 256.03Z" fill="#EB996E"/>
<path d="M411.891 107.754C412.412 119.456 425.82 135.491 435.793 138.133C441.027 139.453 447.055 138.859 451.211 142.61C458.343 149.043 454.175 162.423 458.975 171.008C461.928 176.291 467.795 178.933 471.119 183.939C476.638 192.313 472.93 204.967 465.401 211.201C457.872 217.435 447.825 218.624 438.385 218.36C417.609 217.792 396.337 210.765 381.328 195.087C374.27 187.717 346.672 164.985 356.297 111.082" fill="#263238"/>
<path d="M486.859 191.494L407.884 166.53C404.204 164.817 400.343 163.58 396.386 162.845L369.718 163.03C366.197 163.043 362.715 163.82 359.485 165.315L287.605 190.741C282.284 192.538 278.613 198.349 278.613 204.967C278.613 213.116 284.132 219.734 290.942 219.734H324.184L324.048 220.249L439.502 220.711L483.572 220.803C490.382 220.803 495.901 214.133 495.901 205.891C495.852 199.181 492.18 193.304 486.859 191.494Z" fill="#03A879"/>
<path d="M471.032 200.595C470.793 200.621 470.552 200.621 470.312 200.595L468.278 200.344C466.517 200.106 463.962 199.802 460.836 199.485C452.592 198.638 444.31 198.268 436.029 198.376C427.76 198.505 419.504 199.105 411.295 200.172C408.145 200.581 405.59 200.951 403.853 201.242L401.819 201.546C401.586 201.592 401.349 201.614 401.112 201.612C401.329 201.51 401.559 201.443 401.794 201.414L403.804 200.978C405.553 200.608 408.095 200.159 411.246 199.657C419.469 198.449 427.754 197.783 436.053 197.662C444.34 197.553 452.625 197.994 460.861 198.983C464.024 199.366 466.579 199.749 468.303 200.066L470.325 200.436C470.566 200.453 470.804 200.507 471.032 200.595Z" fill="#263238"/>
<g opacity="0.6">
<path d="M452.501 180.161C452.441 180.266 452.365 180.359 452.277 180.439L451.583 181.218C450.963 181.891 450.045 182.895 448.792 184.11C447.28 185.593 445.677 186.965 443.992 188.218C441.756 189.917 439.258 191.187 436.612 191.969C433.365 192.827 429.962 192.754 426.751 191.758C423.121 190.561 419.633 188.921 416.356 186.871C412.792 184.604 409.023 182.723 405.106 181.257C400.894 179.718 396.286 179.969 392.243 181.957C388.088 183.952 384.553 186.99 380.696 189.182C379.74 189.75 378.723 190.186 377.743 190.662C376.748 191.074 375.734 191.431 374.705 191.732C372.722 192.334 370.684 192.711 368.627 192.854C361.453 193.409 354.319 191.32 348.421 186.937C346.256 185.176 344.216 183.247 342.318 181.165C340.88 179.626 339.297 178.249 337.593 177.057C336.121 176.069 334.474 175.413 332.755 175.129C333.209 175.137 333.662 175.19 334.107 175.287C335.386 175.578 336.611 176.096 337.729 176.819C339.47 177.992 341.092 179.356 342.566 180.888C344.474 182.927 346.518 184.816 348.681 186.541C354.515 190.796 361.539 192.8 368.589 192.22C370.605 192.074 372.601 191.702 374.543 191.111C375.548 190.81 376.538 190.453 377.508 190.041C378.463 189.579 379.455 189.156 380.385 188.588C384.193 186.435 387.716 183.384 391.983 181.323C396.17 179.278 400.934 179.023 405.292 180.61C409.246 182.1 413.049 184.012 416.642 186.316C419.871 188.355 423.308 189.995 426.887 191.203C430.011 192.203 433.328 192.303 436.5 191.494C439.106 190.748 441.573 189.533 443.793 187.901C445.482 186.695 447.094 185.371 448.618 183.939C449.859 182.763 450.839 181.799 451.496 181.165L452.228 180.425C452.402 180.227 452.488 180.148 452.501 180.161Z" fill="white"/>
</g>
<g opacity="0.2">
<path d="M329.778 200.423L379.703 210.448L373.935 220.447L372.41 220.473L329.778 200.423Z" fill="black"/>
</g>
<g opacity="0.6">
<path d="M480.893 189.922C480.92 190.19 480.92 190.46 480.893 190.728C480.865 191.507 480.791 192.284 480.67 193.053C479.874 197.884 477.467 202.247 473.891 205.338C470.316 208.43 465.812 210.043 461.208 209.88C458.682 209.712 456.184 209.224 453.766 208.427C451.285 207.674 448.866 206.842 446.497 206.34C444.235 205.803 441.904 205.674 439.601 205.957C436.316 206.377 433.16 207.568 430.36 209.446C427.561 211.324 425.188 213.841 423.414 216.814L422.769 217.964C422.612 218.298 422.475 218.589 422.36 218.835C422.258 219.088 422.129 219.328 421.975 219.549C422.043 219.286 422.13 219.03 422.236 218.783C422.347 218.518 422.459 218.215 422.595 217.871L423.203 216.682C424.547 214.176 426.343 211.976 428.487 210.21C431.682 207.535 435.504 205.844 439.539 205.323C441.906 205.023 444.304 205.144 446.634 205.68C449.052 206.182 451.471 207.001 453.964 207.767C456.346 208.552 458.807 209.035 461.295 209.206C464.419 209.316 467.519 208.6 470.32 207.123C473.121 205.646 475.534 203.453 477.345 200.74C478.864 198.424 479.927 195.805 480.471 193.04C480.831 191.045 480.818 189.909 480.893 189.922Z" fill="white"/>
</g>
<path d="M287.667 218.03C287.667 218.03 377.917 260.402 377.52 259.464C377.123 258.526 391.846 230.696 391.846 230.696L318.726 192.207L287.667 218.03Z" fill="#03A879"/>
<path d="M329.146 197.702C329.785 197.929 330.407 198.207 331.006 198.534L335.968 201.031C340.16 203.157 345.891 206.142 352.254 209.484C358.617 212.826 364.323 215.877 368.453 218.122L373.328 220.764C373.938 221.068 374.523 221.426 375.077 221.834C374.434 221.621 373.812 221.347 373.216 221.015L368.255 218.518C364.074 216.392 358.332 213.407 351.968 210.065C345.605 206.723 339.9 203.672 335.769 201.427L330.894 198.785C330.286 198.473 329.701 198.11 329.146 197.702Z" fill="#263238"/>
<g opacity="0.6">
<path d="M348.917 210.567C348.801 211.565 348.515 212.531 348.074 213.42C346.876 215.875 344.996 217.877 342.69 219.153C341.142 220.062 339.467 220.704 337.729 221.054C335.707 221.386 333.649 221.386 331.626 221.054C327.04 220.209 322.603 218.623 318.466 216.352C314.346 214.131 310.029 212.352 305.578 211.043C303.649 210.526 301.664 210.282 299.674 210.316C297.938 210.366 296.218 210.677 294.564 211.241C292.144 212.004 289.965 213.456 288.263 215.441C287.682 216.202 287.14 216.996 286.638 217.818C286.978 216.888 287.464 216.026 288.077 215.269C289.75 213.16 291.953 211.602 294.428 210.778C296.113 210.17 297.871 209.823 299.649 209.748C301.691 209.685 303.731 209.916 305.715 210.435C310.191 211.738 314.527 213.535 318.652 215.798C322.736 218.035 327.108 219.62 331.626 220.5C333.591 220.824 335.591 220.824 337.555 220.5C339.261 220.186 340.91 219.588 342.442 218.73C344.697 217.531 346.566 215.646 347.813 213.314C348.239 212.426 348.608 211.508 348.917 210.567Z" fill="white"/>
</g>
<g opacity="0.6">
<path d="M387.232 239.638C387.232 239.757 385.235 239.414 382.01 239.348C380.125 239.328 378.24 239.434 376.367 239.665C374.075 239.962 371.807 240.439 369.582 241.091C367.368 241.778 365.204 242.634 363.107 243.654C361.399 244.509 359.742 245.475 358.145 246.546C355.429 248.396 353.916 249.809 353.841 249.703C354.133 249.307 354.471 248.952 354.846 248.647C355.812 247.745 356.831 246.912 357.897 246.15C359.476 244.996 361.134 243.972 362.859 243.086C367.077 240.913 371.619 239.541 376.28 239.031C378.184 238.826 380.099 238.773 382.01 238.872C383.295 238.919 384.576 239.06 385.843 239.295C386.319 239.342 386.786 239.458 387.232 239.638Z" fill="white"/>
</g>
<g opacity="0.2">
<path d="M398.358 162.66C396.87 167.098 399.103 171.906 401.286 176.001C402.676 178.941 404.437 181.665 406.52 184.097C407.564 185.314 408.829 186.293 410.238 186.974C411.647 187.655 413.172 188.025 414.719 188.06C418.775 187.915 422.397 184.731 426.453 184.982C429.206 185.154 431.613 186.884 433.895 188.522C437.766 191.514 441.965 193.993 446.398 195.906C450.872 197.811 455.802 198.14 460.464 196.844C462.775 196.162 464.884 194.861 466.589 193.064C468.293 191.267 469.537 189.035 470.201 186.581" fill="black"/>
</g>
<path d="M398.693 161.445C398.904 156.268 399.165 151.592 399.165 151.592C399.165 151.592 410.03 150.126 410.489 138.384C410.948 126.641 409.857 99.4059 409.857 99.4059L389.924 89.1299L368.428 107.622L371.79 161.776C372.026 165.531 373.635 169.038 376.272 171.544C378.908 174.05 382.362 175.356 385.893 175.182C389.251 175.004 392.425 173.497 394.793 170.955C397.161 168.414 398.552 165.022 398.693 161.445Z" fill="#FFBE9D"/>
<path d="M407.984 120.684C407.981 120.973 407.899 121.254 407.747 121.493C407.596 121.731 407.381 121.917 407.131 122.027C406.88 122.136 406.605 122.165 406.34 122.109C406.074 122.053 405.83 121.915 405.638 121.712C405.445 121.509 405.314 121.251 405.259 120.968C405.204 120.686 405.228 120.393 405.329 120.125C405.43 119.858 405.602 119.628 405.825 119.464C406.048 119.3 406.311 119.21 406.582 119.205C406.952 119.205 407.306 119.36 407.569 119.638C407.831 119.915 407.98 120.291 407.984 120.684Z" fill="#263238"/>
<path d="M409.323 117.541C409.15 117.739 408.083 116.801 406.632 116.748C405.18 116.695 404.039 117.488 403.878 117.277C403.717 117.065 403.977 116.814 404.461 116.444C405.104 115.959 405.882 115.717 406.669 115.758C407.454 115.804 408.205 116.114 408.815 116.643C409.261 117.065 409.41 117.448 409.323 117.541Z" fill="#263238"/>
<path d="M391.512 120.684C391.512 120.976 391.431 121.261 391.279 121.504C391.127 121.746 390.912 121.936 390.66 122.048C390.407 122.161 390.129 122.192 389.86 122.137C389.592 122.082 389.344 121.944 389.149 121.739C388.954 121.535 388.819 121.274 388.763 120.989C388.707 120.704 388.731 120.407 388.832 120.136C388.933 119.866 389.107 119.633 389.333 119.467C389.558 119.302 389.824 119.21 390.098 119.205C390.282 119.203 390.464 119.24 390.635 119.314C390.806 119.387 390.961 119.496 391.092 119.633C391.224 119.77 391.328 119.934 391.4 120.114C391.472 120.295 391.51 120.488 391.512 120.684Z" fill="#263238"/>
<path d="M392.851 117.845C392.677 118.043 391.611 117.105 390.147 117.052C388.683 116.999 387.555 117.792 387.406 117.58C387.257 117.369 387.505 117.118 387.989 116.748C388.628 116.265 389.401 116.023 390.184 116.061C390.973 116.099 391.728 116.415 392.33 116.96C392.789 117.369 392.938 117.752 392.851 117.845Z" fill="#263238"/>
<path d="M398.433 131.462C399.24 131.216 400.074 131.083 400.914 131.066C401.286 131.066 401.658 130.974 401.72 130.683C401.765 130.228 401.683 129.768 401.484 129.362C401.149 128.292 400.79 127.183 400.405 126.007C399.407 123.159 398.607 120.237 398.011 117.263C399.213 120.018 400.216 122.866 401.013 125.783C401.373 126.958 401.72 128.081 402.042 129.151C402.276 129.683 402.338 130.282 402.216 130.855C402.162 131.001 402.077 131.132 401.967 131.238C401.857 131.343 401.726 131.42 401.583 131.462C401.372 131.518 401.156 131.544 400.938 131.542C400.104 131.636 399.261 131.609 398.433 131.462Z" fill="#263238"/>
<path d="M393.546 133.087C392.033 132.03 397.751 135.729 400.777 135.663C400.26 136.492 399.491 137.105 398.598 137.401C397.706 137.697 396.745 137.657 395.878 137.287C392.677 135.874 393.546 133.087 393.546 133.087Z" fill="white"/>
<path d="M399.165 151.592C394.017 151.441 389.021 149.697 384.789 146.573C384.789 146.573 388.175 155.171 398.979 154.498L399.165 151.592Z" fill="#EB996E"/>
<path d="M356.707 119.205C356.707 129.415 354.164 156.426 371.591 160.151L371.008 123.035C371.008 123.035 387.939 114.529 390.854 96.817L390.953 96.9226C392.032 99.5643 393.967 105.336 392.789 110.012L408.654 114.173L410.477 115.943C410.477 115.943 416.121 102.734 405.23 90.8468C394.34 78.9594 385.024 87.558 379.182 86.8843C375.3 86.3824 361.817 86.4749 356.347 111.174L356.707 119.205Z" fill="#263238"/>
<path d="M371.442 123.392C369.966 122.415 367.944 123.22 366.778 124.581C365.843 125.661 365.263 127.036 365.125 128.498C364.987 129.96 365.299 131.43 366.015 132.687C366.73 133.943 367.81 134.918 369.091 135.465C370.372 136.011 371.785 136.099 373.117 135.715" fill="#FFBE9D"/>
<path d="M371.107 132.189C371.107 132.268 370.611 132.36 369.867 132.189C369.343 132.048 368.859 131.776 368.456 131.394C368.052 131.013 367.74 130.533 367.548 129.996C367.343 129.366 367.37 128.677 367.622 128.068C367.827 127.59 368.153 127.183 368.565 126.892C369.259 126.417 369.805 126.456 369.805 126.535C369.805 126.615 369.371 126.786 368.85 127.288C368.516 127.582 368.273 127.976 368.154 128.419C368.034 128.863 368.043 129.334 368.18 129.772C368.348 130.216 368.599 130.619 368.919 130.955C369.239 131.292 369.621 131.554 370.041 131.726C370.648 131.991 371.107 132.083 371.107 132.189Z" fill="#EB996E"/>
<path d="M369.656 134.513C369.354 134.577 369.085 134.759 368.902 135.022C368.718 135.285 368.633 135.612 368.664 135.938C368.694 136.265 368.837 136.567 369.065 136.788C369.293 137.008 369.59 137.13 369.898 137.13C370.206 137.13 370.503 137.008 370.731 136.788C370.959 136.567 371.102 136.265 371.132 135.938C371.163 135.612 371.078 135.285 370.894 135.022C370.711 134.759 370.442 134.577 370.14 134.513" fill="#03A879"/>
<path d="M401.782 220.777V201.374C401.782 201.374 374.729 207.344 374.233 220.539L401.782 220.777Z" fill="#FFBE9D"/>
<path d="M398.966 159.398C399.421 165.374 401.944 170.956 406.047 175.062C410.15 179.167 415.54 181.503 421.169 181.614C425.163 181.68 429.368 180.676 433.014 182.407C436.19 183.926 438.236 187.188 440.73 189.764C443.704 192.751 447.377 194.835 451.365 195.796C455.353 196.758 459.51 196.563 463.404 195.232C466.691 194.056 471.888 191.547 472.496 187.928C472.967 185.167 469.792 182.42 467.931 180.452C465.966 178.577 463.713 177.076 461.27 176.014C441.995 166.372 421.318 159.371 400.058 158.169" fill="#263238"/>
</svg>
