<svg width="178" height="50" viewBox="0 0 178 50" fill="none" xmlns="http://www.w3.org/2000/svg">
<g clip-path="url(#clip0_284_245)">
<path d="M27.6948 12.1988C24.8375 9.16979 21.0398 7.5 17 7.5C12.9603 7.5 9.16113 9.16979 6.30525 12.1988C3.448 15.2277 1.875 19.2556 1.875 23.5417C1.875 27.8277 3.448 31.8542 6.34375 34.924L11.7654 40.2367C13.172 41.6965 15.031 42.5 17 42.5C18.969 42.5 20.828 41.6965 22.2071 40.2644L27.6961 34.8846C30.5534 31.8542 32.1264 27.8263 32.1264 23.5417C32.1264 19.2571 30.5506 15.2277 27.6948 12.1988ZM20.4375 17.7083C21.576 17.7083 22.5 18.6883 22.5 19.8958C22.5 21.1033 21.576 22.0833 20.4375 22.0833C19.299 22.0833 18.375 21.1033 18.375 19.8958C18.375 18.6883 19.299 17.7083 20.4375 17.7083ZM13.5625 17.7083C14.701 17.7083 15.625 18.6883 15.625 19.8958C15.625 21.1033 14.701 22.0833 13.5625 22.0833C12.424 22.0833 11.5 21.1033 11.5 19.8958C11.5 18.6883 12.424 17.7083 13.5625 17.7083ZM23.4721 26.5312C21.7438 28.3644 19.4448 29.375 17 29.375C14.5553 29.375 12.2563 28.3658 10.5279 26.5312C9.99025 25.961 9.99025 25.0394 10.5279 24.4692C11.0655 23.899 11.9345 23.899 12.4721 24.4692C13.6808 25.751 15.2895 26.4583 17 26.4583C18.7105 26.4583 20.3193 25.7525 21.5279 24.4692C22.0655 23.899 22.9345 23.899 23.4721 24.4692C24.0098 25.0394 24.0098 25.961 23.4721 26.5312Z" fill="#03A879"/>
</g>
<path d="M41.68 38.5L47.116 12.796H52.696C54.328 12.796 55.648 13.072 56.656 13.624C57.664 14.152 58.396 14.884 58.852 15.82C59.332 16.756 59.572 17.86 59.572 19.132C59.572 20.5 59.368 21.808 58.96 23.056C58.552 24.28 57.94 25.36 57.124 26.296C56.332 27.232 55.348 27.964 54.172 28.492C53.02 28.996 51.676 29.248 50.14 29.248H48.376L46.468 38.5H41.68ZM50.284 25.18C51.22 25.18 52.012 24.952 52.66 24.496C53.332 24.016 53.836 23.356 54.172 22.516C54.532 21.652 54.712 20.668 54.712 19.564C54.712 18.628 54.496 17.956 54.064 17.548C53.632 17.116 52.984 16.9 52.12 16.9H51.04L49.276 25.18H50.284ZM59.012 38.5L64.448 12.796H69.236L64.664 34.36H71.432L70.568 38.5H59.012ZM71.2267 38.5L82.7107 12.724H88.7227L89.4427 38.5H84.5467V32.092H78.9667L76.3747 38.5H71.2267ZM80.7307 27.952H84.6907L84.7627 20.464C84.7627 19.864 84.7627 19.264 84.7627 18.664C84.7867 18.064 84.8227 17.464 84.8707 16.864H84.7627C84.6187 17.44 84.4507 18.004 84.2587 18.556C84.0667 19.108 83.8507 19.696 83.6107 20.32L80.7307 27.952ZM99.5286 38.86C98.0406 38.86 96.7806 38.512 95.7486 37.816C94.7166 37.12 93.9366 36.124 93.4086 34.828C92.9046 33.508 92.6526 31.948 92.6526 30.148C92.6526 28.588 92.8086 26.98 93.1206 25.324C93.4326 23.668 93.9126 22.084 94.5606 20.572C95.2086 19.036 96.0006 17.656 96.9366 16.432C97.8966 15.184 99.0006 14.212 100.249 13.516C101.521 12.796 102.949 12.436 104.533 12.436C105.661 12.436 106.693 12.568 107.629 12.832C108.589 13.072 109.501 13.48 110.365 14.056L108.169 17.908C107.593 17.476 107.005 17.152 106.405 16.936C105.829 16.696 105.229 16.576 104.605 16.576C103.645 16.576 102.781 16.888 102.013 17.512C101.269 18.136 100.621 18.964 100.069 19.996C99.5166 21.028 99.0606 22.144 98.7006 23.344C98.3406 24.52 98.0646 25.696 97.8726 26.872C97.7046 28.024 97.6206 29.02 97.6206 29.86C97.6206 31.516 97.8726 32.74 98.3766 33.532C98.9046 34.3 99.6846 34.684 100.717 34.684C101.485 34.684 102.241 34.576 102.985 34.36C103.729 34.12 104.485 33.832 105.253 33.496L105.217 37.708C104.449 38.044 103.561 38.32 102.553 38.536C101.569 38.752 100.561 38.86 99.5286 38.86ZM108.301 38.5L113.737 12.796H125.185L124.321 16.9H117.661L116.365 23.128H122.521L121.657 27.196H115.465L113.953 34.36H120.613L119.749 38.5H108.301ZM121.324 38.5L132.808 12.724H138.82L139.54 38.5H134.644V32.092H129.064L126.472 38.5H121.324ZM130.828 27.952H134.788L134.86 20.464C134.86 19.864 134.86 19.264 134.86 18.664C134.884 18.064 134.92 17.464 134.968 16.864H134.86C134.716 17.44 134.548 18.004 134.356 18.556C134.164 19.108 133.948 19.696 133.708 20.32L130.828 27.952ZM141.875 38.5L147.311 12.796H152.891C154.523 12.796 155.843 13.072 156.851 13.624C157.859 14.152 158.591 14.884 159.047 15.82C159.527 16.756 159.767 17.86 159.767 19.132C159.767 20.5 159.563 21.808 159.155 23.056C158.747 24.28 158.135 25.36 157.319 26.296C156.527 27.232 155.543 27.964 154.367 28.492C153.215 28.996 151.871 29.248 150.335 29.248H148.571L146.663 38.5H141.875ZM150.479 25.18C151.415 25.18 152.207 24.952 152.855 24.496C153.527 24.016 154.031 23.356 154.367 22.516C154.727 21.652 154.907 20.668 154.907 19.564C154.907 18.628 154.691 17.956 154.259 17.548C153.827 17.116 153.179 16.9 152.315 16.9H151.235L149.471 25.18H150.479ZM159.207 38.5L164.643 12.796H170.223C171.855 12.796 173.175 13.072 174.183 13.624C175.191 14.152 175.923 14.884 176.379 15.82C176.859 16.756 177.099 17.86 177.099 19.132C177.099 20.5 176.895 21.808 176.487 23.056C176.079 24.28 175.467 25.36 174.651 26.296C173.859 27.232 172.875 27.964 171.699 28.492C170.547 28.996 169.203 29.248 167.667 29.248H165.903L163.995 38.5H159.207ZM167.811 25.18C168.747 25.18 169.539 24.952 170.187 24.496C170.859 24.016 171.363 23.356 171.699 22.516C172.059 21.652 172.239 20.668 172.239 19.564C172.239 18.628 172.023 17.956 171.591 17.548C171.159 17.116 170.511 16.9 169.647 16.9H168.567L166.803 25.18H167.811Z" fill="#066B4F"/>
<defs>
<clipPath id="clip0_284_245">
<rect width="33" height="35" fill="white" transform="translate(0.5 7.5)"/>
</clipPath>
</defs>
</svg>
