<svg width="50" height="51" viewBox="0 0 50 51" fill="none" xmlns="http://www.w3.org/2000/svg">
<g id="mail-ico">
<path id="Vector" d="M45.8333 17.8334V38C45.8333 39.1051 45.3944 40.1649 44.613 40.9463C43.8316 41.7277 42.7717 42.1667 41.6667 42.1667H8.33334C7.22827 42.1667 6.16846 41.7277 5.38706 40.9463C4.60566 40.1649 4.16667 39.1051 4.16667 38V18.6042L8.33334 20.875L24 29.4167C24.3071 29.5825 24.651 29.6685 25 29.6667C25.3669 29.6629 25.7262 29.5623 26.0417 29.375L41.6667 20.2709L45.8333 17.8334Z" fill="#03A879"/>
<path id="Vector_2" d="M45.8333 13L41.6667 15.4584L25 25.1875L8.33334 16.125L4.16667 13.8334V13C4.16667 11.895 4.60566 10.8352 5.38706 10.0538C6.16846 9.27236 7.22827 8.83337 8.33334 8.83337H41.6667C42.7717 8.83337 43.8316 9.27236 44.613 10.0538C45.3944 10.8352 45.8333 11.895 45.8333 13Z" fill="#03A879"/>
</g>
</svg>
