<svg width="35" height="34" viewBox="0 0 35 34" fill="none" xmlns="http://www.w3.org/2000/svg">
<g id="Group">
<path id="Vector" d="M18.4649 31.0862C17.111 29.3106 16.4739 27.0028 16.4711 24.5712C16.4728 21.9413 17.2233 19.1373 18.7795 16.6215C20.3339 14.1085 22.7145 11.8895 25.9257 10.5149C27.7053 9.75232 28.8845 8.95139 29.6528 8.1802C30.236 7.59177 30.5964 7.02737 30.8296 6.45043C30.5231 6.06427 30.2016 5.68555 29.8567 5.32057C24.3479 -0.510375 15.6907 -1.57555 9.028 2.25807C8.78216 2.61103 8.5524 2.96969 8.35417 3.33812C7.7182 4.51897 7.34407 5.75767 7.34294 7.0967C7.34467 8.2397 7.61394 9.4756 8.30317 10.8581C9.33048 12.9191 9.8438 15.3392 9.84672 17.7531C9.84499 19.8099 9.47033 21.8674 8.64749 23.6899C7.82711 25.5074 6.53046 27.1076 4.70734 28.089C4.68556 28.1005 4.66265 28.1109 4.64087 28.1223C4.80363 28.3096 4.96858 28.4958 5.14051 28.6781C9.51608 33.3087 15.8752 34.9341 21.6442 33.4891C21.435 33.4084 21.227 33.3258 21.0294 33.2267C20.0032 32.7139 19.141 31.9708 18.4649 31.0862Z" fill="#066B4F"/>
<path id="Vector_2" d="M32.4934 8.9823C31.9548 9.74206 31.2461 10.4662 30.342 11.1308C29.4321 11.8018 28.3275 12.4217 26.9891 12.9958C24.3008 14.1497 22.3626 15.9665 21.0734 18.0429C19.7866 20.117 19.1684 22.4569 19.1702 24.5711C19.169 26.0379 19.4669 27.3888 20.0009 28.4631C20.5377 29.5409 21.2849 30.335 22.2371 30.8128C22.8748 31.1313 23.6179 31.317 24.5145 31.3182C25.3871 31.3182 26.4179 31.121 27.5861 30.6833C28.1355 30.2771 28.6684 29.8388 29.1771 29.3575C34.8786 23.9707 36.0256 15.5793 32.4934 8.9823Z" fill="#066B4F"/>
<path id="Vector_3" d="M7.1476 17.753C7.15046 15.7293 6.69956 13.6787 5.88947 12.0652C5.0323 10.3539 4.64329 8.67742 4.64442 7.09666C4.64442 6.63885 4.68679 6.19426 4.74755 5.75537C-0.235975 11.399 -0.859929 19.6162 3.01156 25.9033C3.15187 25.842 3.29518 25.7836 3.42806 25.7125C4.23423 25.2777 4.90453 24.656 5.45743 23.8699C6.56429 22.3045 7.15218 20.0562 7.1476 17.753Z" fill="#066B4F"/>
</g>
</svg>
