<svg width="24" height="34" viewBox="0 0 24 34" fill="none" xmlns="http://www.w3.org/2000/svg">
<g id="Group">
<path id="Vector" d="M17.0496 12.0195C16.6373 12.2436 16.1226 12.0914 15.9013 11.6819C15.6772 11.2697 15.8293 10.755 16.2416 10.5336C18.1895 9.47668 19.0971 8.10982 19.2797 6.7734C19.3765 6.05953 19.2659 5.34289 18.9975 4.67883C18.7236 4.00647 18.2891 3.39498 17.7385 2.90246C16.6677 1.94511 15.1653 1.44153 13.5964 1.83166C12.96 1.98938 12.4094 2.30758 11.928 2.75582C11.4161 3.23173 10.9734 3.85429 10.586 4.59029C10.3674 5.00533 9.85555 5.16304 9.44328 4.94722C9.02824 4.72864 8.87052 4.21676 9.08634 3.80448C9.56225 2.90246 10.1184 2.12773 10.7769 1.51347C11.4659 0.874307 12.2655 0.414998 13.1952 0.185343C15.3534 -0.348674 17.4093 0.33199 18.8702 1.63798C19.6117 2.30204 20.2011 3.12935 20.5719 4.04244C20.9454 4.96383 21.0976 5.97652 20.9565 7.00305C20.7047 8.83476 19.5315 10.672 17.0496 12.0195ZM10.5583 18.7072C7.34871 14.3963 7.27124 10.3123 11.1671 6.51607L8.36141 4.96659C6.11466 4.09224 1.99194 10.5364 3.58569 12.2574L5.77157 15.5003L5.32056 16.441C5.19604 16.7205 5.31779 16.917 5.62215 17.0525L5.91821 17.1328L0.232178 28.3859L1.38322 30.8401L3.6853 30.1622L4.27742 29.0112L3.7102 27.9487L4.96086 27.6803L5.25138 27.1158L4.59839 26.1197L5.02726 25.2869L6.27515 25.1292L6.68188 24.3406L5.98462 23.4303L6.43009 22.567L7.70288 22.3595L9.43498 19.053L9.72827 19.2135C10.2374 19.5234 10.5002 19.3242 10.5583 18.7072ZM16.5986 21.4104L15.7519 24.5703L14.5759 25.0351L14.3297 25.9565L15.1874 26.6842L14.9633 27.5226L13.8012 27.9321L13.5632 28.8175L14.3961 29.6337L14.2356 30.2342L13.0929 30.7516L13.8565 31.6508L13.5273 32.8766L11.4659 34.0027L9.85555 31.8916L12.9268 20.4282L12.1825 20.229C12.0304 20.1875 11.9363 20.0297 11.9778 19.8748L12.2904 18.7099C10.0382 17.0027 8.92309 14.0476 9.69783 11.1507C10.6939 7.42916 14.4514 5.18241 18.1757 6.01802C18.1923 6.21724 18.1895 6.41923 18.1619 6.62121C18.0927 7.1248 17.8741 7.64221 17.4701 8.14302C17.4148 8.20943 17.3567 8.2786 17.2958 8.34501C16.106 8.26754 14.991 9.03674 14.67 10.2321C14.5317 10.7467 14.5621 11.2669 14.7253 11.7345C14.7641 11.9005 14.8277 12.061 14.9107 12.2187C15.1072 12.5784 15.3949 12.8523 15.7325 13.0267C15.9539 13.1733 16.2029 13.284 16.4713 13.3587C17.8077 13.7156 19.1773 12.9464 19.5758 11.6321C19.9797 11.2752 20.3311 10.8989 20.6327 10.5115C21.2193 9.75614 21.6205 8.95373 21.8585 8.13749C23.4744 9.88065 24.1855 12.3903 23.5242 14.8584C22.7494 17.7553 20.3007 19.7586 17.5006 20.11L17.1879 21.2749C17.1464 21.427 16.9887 21.5211 16.8337 21.4796L16.5986 21.4104Z" fill="#066B4F"/>
</g>
</svg>
