<svg width="60" height="60" viewBox="0 0 60 60" fill="none" xmlns="http://www.w3.org/2000/svg">
<path d="M30 37.5C34.1421 37.5 37.5 34.1421 37.5 30C37.5 25.8579 34.1421 22.5 30 22.5C25.8579 22.5 22.5 25.8579 22.5 30C22.5 34.1421 25.8579 37.5 30 37.5Z" stroke="#066B4F" stroke-width="3.75"/>
<path d="M34.4135 5.3806C33.4945 5 32.3297 5 30 5C27.6702 5 26.5055 5 25.5865 5.3806C24.3614 5.88808 23.388 6.86145 22.8806 8.08658C22.6489 8.64585 22.5582 9.29625 22.5228 10.245C22.4706 11.6392 21.7556 12.9297 20.5473 13.6273C19.3391 14.3249 17.864 14.2988 16.6305 13.6469C15.7911 13.2032 15.1825 12.9566 14.5823 12.8776C13.2676 12.7045 11.9379 13.0607 10.8859 13.868C10.0968 14.4735 9.51442 15.4822 8.34957 17.4998C7.18472 19.5174 6.60229 20.5262 6.47247 21.5123C6.29939 22.827 6.65567 24.1566 7.46294 25.2087C7.83139 25.689 8.34924 26.0925 9.15297 26.5975C10.3345 27.34 11.0947 28.6048 11.0946 30C11.0946 31.3952 10.3344 32.6597 9.15294 33.402C8.34912 33.9072 7.83119 34.311 7.46269 34.7913C6.65542 35.8433 6.29914 37.1728 6.47224 38.4875C6.60204 39.4735 7.18447 40.4825 8.34932 42.5C9.51419 44.5175 10.0966 45.5265 10.8856 46.1317C11.9377 46.939 13.2673 47.2952 14.5821 47.1222C15.1822 47.0432 15.7908 46.7965 16.6301 46.353C17.8637 45.701 19.3389 45.675 20.5472 46.3725C21.7556 47.0702 22.4706 48.3607 22.5228 49.7552C22.5583 50.7037 22.6489 51.3542 22.8806 51.9135C23.388 53.1385 24.3614 54.112 25.5865 54.6195C26.5055 55 27.6702 55 30 55C32.3297 55 33.4945 55 34.4135 54.6195C35.6385 54.112 36.612 53.1385 37.1192 51.9135C37.351 51.3542 37.4417 50.7038 37.4772 49.755C37.5292 48.3608 38.2442 47.0702 39.4525 46.3725C40.6607 45.6747 42.136 45.701 43.3697 46.353C44.209 46.7965 44.8175 47.043 45.4175 47.122C46.7322 47.2953 48.062 46.939 49.114 46.1317C49.903 45.5262 50.4855 44.5175 51.6502 42.4998C52.8152 40.4823 53.3977 39.4735 53.5275 38.4875C53.7005 37.1728 53.3442 35.843 52.537 34.791C52.1685 34.3107 51.6505 33.907 50.8467 33.402C49.6655 32.6597 48.9052 31.395 48.9052 29.9997C48.9052 28.6045 49.6655 27.3403 50.8467 26.598C51.6507 26.0928 52.1687 25.6892 52.5372 25.2087C53.3445 24.1568 53.7007 22.8272 53.5277 21.5124C53.398 20.5264 52.8155 19.5176 51.6505 17.5C50.4857 15.4824 49.9032 14.4736 49.1142 13.8682C48.0622 13.0609 46.7325 12.7046 45.4177 12.8777C44.8177 12.9567 44.2092 13.2034 43.3697 13.647C42.1362 14.299 40.661 14.3251 39.4527 13.6274C38.2442 12.9298 37.5292 11.6391 37.4772 10.2448C37.4417 9.2962 37.351 8.64583 37.1192 8.08658C36.612 6.86145 35.6385 5.88808 34.4135 5.3806Z" stroke="#066B4F" stroke-width="3.75"/>
</svg>
