<svg width="56" height="53" viewBox="0 0 56 53" fill="none" xmlns="http://www.w3.org/2000/svg">
<path d="M5.245 29.4524C5.95224 28.8531 6.78545 28.421 7.68269 28.1882C8.57993 27.9553 9.51812 27.9277 10.4275 28.1074C11.8345 28.3819 13.0951 29.1551 13.9775 30.2849L15.025 27.7274C14.4901 27.2465 13.8962 26.8357 13.2575 26.5049C14.2412 25.6821 14.9481 24.5766 15.282 23.3384C15.616 22.1001 15.561 20.7891 15.1244 19.5832C14.6879 18.3774 13.8909 17.335 12.8417 16.5975C11.7925 15.86 10.5418 15.4631 9.25935 15.4607C7.97688 15.4583 6.72472 15.8505 5.67275 16.5841C4.62079 17.3177 3.81996 18.3571 3.37891 19.5613C2.93786 20.7656 2.87795 22.0764 3.20731 23.3158C3.53666 24.5553 4.23934 25.6634 5.22 26.4899C4.65748 26.7794 4.12847 27.1298 3.6425 27.5349C2.65788 28.3548 1.86589 29.3816 1.32278 30.5421C0.779663 31.7026 0.498755 32.9685 0.500004 34.2499V37.9999H3V34.2499C2.99873 33.3344 3.19923 32.4299 3.58726 31.6007C3.97528 30.7715 4.54129 30.038 5.245 29.4524ZM5.5 21.7499C5.5 21.0082 5.71994 20.2832 6.13199 19.6665C6.54405 19.0498 7.12972 18.5692 7.81494 18.2853C8.50016 18.0015 9.25416 17.9272 9.98159 18.0719C10.709 18.2166 11.3772 18.5738 11.9017 19.0982C12.4261 19.6227 12.7833 20.2909 12.9279 21.0183C13.0726 21.7457 12.9984 22.4997 12.7146 23.1849C12.4307 23.8702 11.9501 24.4558 11.3334 24.8679C10.7167 25.2799 9.99168 25.4999 9.25 25.4999C8.25585 25.4986 7.30279 25.103 6.59981 24.4001C5.89684 23.6971 5.50133 22.744 5.5 21.7499ZM50.7575 26.5049C51.7415 25.6824 52.4487 24.5771 52.783 23.339C53.1174 22.1009 53.0628 20.7899 52.6266 19.5838C52.1904 18.3778 51.3938 17.3352 50.3448 16.5974C49.2958 15.8595 48.0453 15.4623 46.7628 15.4595C45.4803 15.4567 44.228 15.8485 43.1758 16.5817C42.1236 17.315 41.3225 18.3541 40.8811 19.5583C40.4396 20.7624 40.3793 22.0731 40.7083 23.3127C41.0373 24.5523 41.7396 25.6606 42.72 26.4874C42.1573 26.7776 41.6283 27.1288 41.1425 27.5349C41.0775 27.5874 41.0325 27.6599 40.9675 27.7149L41.9975 30.2299C42.6934 29.3628 43.6159 28.7055 44.6626 28.3308C45.7094 27.9562 46.8395 27.8788 47.9275 28.1074C49.3937 28.4408 50.6996 29.2708 51.624 30.4567C52.5485 31.6426 53.0346 33.1116 53 34.6149V37.9999H55.5V34.6149C55.52 32.9599 55.0892 31.3307 54.2537 29.902C53.4183 28.4733 52.2097 27.2989 50.7575 26.5049ZM43 21.7499C43 21.0082 43.2199 20.2832 43.632 19.6665C44.0441 19.0498 44.6297 18.5692 45.3149 18.2853C46.0002 18.0015 46.7542 17.9272 47.4816 18.0719C48.209 18.2166 48.8772 18.5738 49.4017 19.0982C49.9261 19.6227 50.2833 20.2909 50.4279 21.0183C50.5726 21.7457 50.4984 22.4997 50.2146 23.1849C49.9307 23.8702 49.4501 24.4558 48.8334 24.8679C48.2167 25.2799 47.4917 25.4999 46.75 25.4999C45.7558 25.4986 44.8028 25.103 44.0998 24.4001C43.3968 23.6971 43.0013 22.744 43 21.7499ZM23 20.4999V17.9999C22.9983 17.2427 23.1695 16.495 23.5005 15.814C23.8314 15.1329 24.3135 14.5364 24.91 14.0699C25.5167 13.5956 26.2239 13.2663 26.9774 13.1073C27.7309 12.9483 28.5109 12.9637 29.2575 13.1524C30.3629 13.4746 31.3301 14.1546 32.0074 15.0857C32.6847 16.0169 33.0338 17.1465 33 18.2974V20.4999H35.5V18.2999C35.507 16.9706 35.1799 15.6609 34.5487 14.4911C33.9175 13.3212 33.0024 12.3288 31.8875 11.6049C32.9038 10.797 33.6433 9.69264 34.0032 8.44524C34.3632 7.19785 34.3258 5.86931 33.8961 4.64416C33.4665 3.41902 32.666 2.35807 31.6058 1.60868C30.5457 0.859292 29.2784 0.458659 27.9801 0.462429C26.6818 0.466198 25.4169 0.874181 24.3611 1.62971C23.3053 2.38525 22.511 3.45082 22.0885 4.67845C21.666 5.90607 21.6363 7.2348 22.0035 8.48008C22.3706 9.72537 23.1165 10.8254 24.1375 11.6274C23.8695 11.7713 23.6107 11.9316 23.3625 12.1074C22.4685 12.807 21.7459 13.7015 21.2498 14.7226C20.7538 15.7437 20.4973 16.8646 20.5 17.9999V20.4999H23ZM24.25 6.74988C24.25 6.0082 24.4699 5.28318 24.882 4.66649C25.294 4.04981 25.8797 3.56916 26.5649 3.28533C27.2502 3.0015 28.0042 2.92724 28.7316 3.07194C29.459 3.21663 30.1272 3.57378 30.6517 4.09823C31.1761 4.62268 31.5333 5.29086 31.6779 6.01829C31.8226 6.74572 31.7484 7.49972 31.4646 8.18494C31.1807 8.87017 30.7001 9.45584 30.0834 9.86789C29.4667 10.2799 28.7417 10.4999 28 10.4999C27.0058 10.4986 26.0528 10.103 25.3498 9.40007C24.6468 8.69709 24.2513 7.74404 24.25 6.74988ZM47.9075 51.2749L45.5925 52.2249L34.66 25.4999H21.34L10.4075 52.2249L8.0925 51.2749L19.025 24.5549C19.2119 24.0944 19.5322 23.7004 19.9447 23.4233C20.3572 23.1462 20.8431 22.9988 21.34 22.9999H34.66C35.156 22.9985 35.6411 23.1454 36.0531 23.4215C36.4651 23.6977 36.7853 24.0906 36.9725 24.5499L47.9075 51.2749Z" fill="#066B4F"/>
</svg>
