<svg width="44" height="60" viewBox="0 0 44 60" fill="none" xmlns="http://www.w3.org/2000/svg">
<path d="M38.25 27.5H32.1625L31.285 20.475C30.8974 17.3525 28.23 15 25.0849 15H18.9124C15.7675 15 13.0999 17.3525 12.7099 20.475L11.8324 27.5H5.74992C2.99238 27.5 0.749878 29.7425 0.749878 32.5001C0.749878 35.2576 2.99238 37.5001 5.74992 37.5001H5.87988L8.25738 58.8877C8.32734 59.5227 8.86242 60.0001 9.49992 60.0001H34.4999C35.1374 60.0001 35.6723 59.5226 35.7424 58.8877L38.1199 37.5H38.2499C41.0074 37.5 43.2499 35.2575 43.2499 32.5C43.2499 29.7425 41.0074 27.5 38.25 27.5ZM15.19 20.785C15.4249 18.9124 17.025 17.5 18.9124 17.5H25.0849C26.9725 17.5 28.5724 18.9124 28.8074 20.785L29.6474 27.4999H14.35L15.19 20.785ZM33.3799 57.5H10.62L8.39742 37.5H35.605L33.3799 57.5ZM38.25 35H5.74992C4.37238 35 3.24996 33.8775 3.24996 32.5001C3.24996 31.1225 4.3725 30 5.74992 30H38.2499C39.6274 30 40.7498 31.1225 40.7498 32.5C40.75 33.8775 39.6274 35 38.25 35Z" fill="#066B4F"/>
<path d="M22 12.5C25.4449 12.5 28.2499 9.69504 28.2499 6.25008C28.2499 2.80512 25.4449 0 22 0C18.555 0 15.75 2.805 15.75 6.24996C15.75 9.69492 18.555 12.5 22 12.5ZM22 2.49996C24.0675 2.49996 25.75 4.18242 25.75 6.24996C25.75 8.3175 24.0675 9.99996 22 9.99996C19.9324 9.99996 18.25 8.3175 18.25 6.24996C18.25 4.18254 19.9324 2.49996 22 2.49996Z" fill="#066B4F"/>
</svg>
