<svg width="39" height="51" viewBox="0 0 39 51" fill="none" xmlns="http://www.w3.org/2000/svg">
<g id="Group">
<path id="Vector" d="M3.75889 2.61869C0.323346 4.84682 -0.351556 11.8116 0.945514 17.488C1.95567 21.9085 4.10333 27.8383 7.72481 33.4221C11.1316 38.675 15.8847 43.3852 19.5089 46.1104C24.1629 49.6096 30.7974 51.8338 34.2329 49.6057C35.9701 48.479 38.5511 45.4008 38.6689 44.8485C38.6689 44.8485 37.1554 42.5149 36.8232 42.0028L31.7479 34.1771C31.3707 33.5956 29.0055 34.1271 27.8039 34.8077C26.1831 35.726 24.6904 38.1901 24.6904 38.1901C23.5791 38.8322 22.6482 38.1924 20.7033 37.2973C18.313 36.1975 15.6255 32.7803 13.4865 29.6853C11.5329 26.4702 9.50879 22.6226 9.4795 19.9915C9.45538 17.8507 9.25089 16.74 10.2904 15.9871C10.2904 15.9871 13.149 15.629 14.6485 14.5238C15.76 13.7042 17.2099 11.7615 16.8327 11.1798L11.7573 3.35424C11.4252 2.84213 9.91172 0.508538 9.91172 0.508538C9.35928 0.390862 5.4961 1.49203 3.75889 2.61869Z" fill="#03A879"/>
</g>
</svg>
