<svg width="46" height="46" viewBox="0 0 46 46" fill="none" xmlns="http://www.w3.org/2000/svg">
<path d="M4.33333 24.2353H2V14.3529C2 11.624 4.08934 9.41176 6.66667 9.41176H16M4.33333 24.2353V39.0588C4.33333 41.7878 6.42267 44 9 44H37C39.5774 44 41.6667 41.7878 41.6667 39.0588V24.2353M4.33333 24.2353H18.3333M16 9.41176V6.94118C16 4.21224 18.0893 2 20.6667 2H25.3333C27.9107 2 30 4.21224 30 6.94118V9.41176M16 9.41176H30M41.6667 24.2353H44V14.3529C44 11.624 41.9107 9.41176 39.3333 9.41176H30M41.6667 24.2353H27.6667M18.3333 24.2353V19.2941H27.6667V24.2353M18.3333 24.2353V29.1765H27.6667V24.2353" stroke="#066B4F" stroke-width="3" stroke-linecap="round" stroke-linejoin="round"/>
</svg>
