<svg width="40" height="40" viewBox="0 0 40 40" fill="none" xmlns="http://www.w3.org/2000/svg">
<path id="Vector" d="M8.72524 22.7418L20.5093 35.6044C21.4617 36.7284 21.3237 38.4127 20.2011 39.3662C19.0785 40.3198 17.3964 40.1816 16.4441 39.0576L0.773435 21.9528C0.548097 21.7261 0.365498 21.4605 0.234427 21.1689C0.0714338 20.8063 -0.00842706 20.4118 0.000703375 20.0143L0.000742479 20.0118C0.00981594 19.6152 0.106854 19.2256 0.284832 18.8711C0.302139 18.8368 0.320183 18.8028 0.338952 18.7693C0.447562 18.5747 0.580288 18.3947 0.733979 18.2334L16.8213 0.854657C17.822 -0.226425 19.5085 -0.29048 20.5882 0.71151C21.6678 1.7135 21.7319 3.40221 20.7311 4.48326L8.77064 17.4039H37.3344C38.8066 17.4039 40 18.5989 40 20.0729C40 21.5469 38.8066 22.7419 37.3344 22.7419H8.72524V22.7418Z" fill="#03A879"/>
</svg>
