<svg width="567" height="422" viewBox="0 0 567 422" fill="none" xmlns="http://www.w3.org/2000/svg">
<path d="M480.59 238.23C492.019 290.335 460.1 323.999 415.902 322.435C394.709 321.688 369.404 298.388 348.597 293.2C321.412 286.404 297.897 295.205 271.924 296.497C207.303 299.691 208.153 273.321 164.612 239.318C134.029 215.418 84.6766 218.034 68.3317 176.181C48.3055 125.017 105.711 100.29 149.32 107.879C199.431 116.578 213.306 54.1886 289.843 61.098C365.055 67.8943 464.495 159.711 480.59 238.23Z" fill="#03A879"/>
<path opacity="0.9" d="M480.59 238.23C492.019 290.335 460.1 323.999 415.902 322.435C394.709 321.688 369.404 298.388 348.597 293.2C321.412 286.404 297.897 295.205 271.924 296.497C207.303 299.691 208.153 273.321 164.612 239.318C134.029 215.418 84.6766 218.034 68.3317 176.181C48.3055 125.017 105.711 100.29 149.32 107.879C199.431 116.578 213.306 54.1886 289.843 61.098C365.055 67.8943 464.495 159.711 480.59 238.23Z" fill="white"/>
<path d="M283.5 422C404.793 422 503.12 416.259 503.12 409.178C503.12 402.096 404.793 396.356 283.5 396.356C162.207 396.356 63.8801 402.096 63.8801 409.178C63.8801 416.259 162.207 422 283.5 422Z" fill="#F5F5F5"/>
<path d="M295.292 351.704H150.793C148.469 351.672 146.244 350.761 144.563 349.156C142.882 347.551 141.871 345.37 141.731 343.051L128.773 92.1001C128.701 90.9839 128.861 89.8648 129.241 88.8131C129.622 87.7614 130.216 86.7997 130.986 85.9883C131.756 85.1769 132.685 84.5333 133.716 84.0978C134.746 83.6623 135.855 83.4444 136.974 83.4576H281.473C283.795 83.4877 286.02 84.3955 287.701 85.9986C289.382 87.6018 290.394 89.7815 290.534 92.1001L303.47 343.051C303.541 344.165 303.383 345.283 303.003 346.334C302.624 347.385 302.032 348.346 301.265 349.158C300.497 349.97 299.571 350.615 298.543 351.053C297.516 351.491 296.409 351.713 295.292 351.704Z" fill="#03A879"/>
<path opacity="0.8" d="M295.292 351.704H150.793C148.469 351.672 146.244 350.761 144.563 349.156C142.882 347.551 141.871 345.37 141.731 343.051L128.773 92.1001C128.701 90.9839 128.861 89.8648 129.241 88.8131C129.622 87.7614 130.216 86.7997 130.986 85.9883C131.756 85.1769 132.685 84.5333 133.716 84.0978C134.746 83.6623 135.855 83.4444 136.974 83.4576H281.473C283.795 83.4877 286.02 84.3955 287.701 85.9986C289.382 87.6018 290.394 89.7815 290.534 92.1001L303.47 343.051C303.541 344.165 303.383 345.283 303.003 346.334C302.624 347.385 302.032 348.346 301.265 349.158C300.497 349.97 299.571 350.615 298.543 351.053C297.516 351.491 296.409 351.713 295.292 351.704Z" fill="white"/>
<path d="M267.212 75.2795H251.229V76.4122H267.212V75.2795Z" fill="#03A879"/>
<path d="M245.691 75.2795H239.834V76.4122H245.691V75.2795Z" fill="#03A879"/>
<path d="M301.51 335.779H163.32C161.095 335.757 158.961 334.893 157.346 333.361C155.732 331.829 154.759 329.742 154.621 327.521L142.252 87.5013C142.183 86.433 142.336 85.362 142.701 84.3556C143.065 83.3491 143.634 82.4289 144.371 81.6525C145.108 80.8761 145.997 80.2604 146.984 79.844C147.97 79.4276 149.031 79.2194 150.102 79.2325H288.292C290.517 79.2571 292.65 80.1237 294.262 81.6579C295.874 83.1921 296.845 85.28 296.979 87.5013L309.349 327.521C309.417 328.588 309.265 329.657 308.901 330.662C308.537 331.668 307.969 332.587 307.233 333.362C306.497 334.137 305.609 334.752 304.624 335.168C303.639 335.584 302.579 335.792 301.51 335.779Z" fill="#03A879"/>
<path d="M301.51 330.262H163.321C162.51 330.235 161.738 329.91 161.151 329.35C160.565 328.791 160.204 328.035 160.138 327.227L147.757 87.2182C147.729 86.8989 147.769 86.5774 147.875 86.2747C147.98 85.9721 148.149 85.6952 148.369 85.4625C148.59 85.2303 148.858 85.0476 149.154 84.9266C149.451 84.8055 149.77 84.7488 150.091 84.7602H288.28C289.089 84.7908 289.858 85.1166 290.442 85.676C291.027 86.2354 291.386 86.9895 291.452 87.7959L303.889 327.804C303.916 328.123 303.876 328.443 303.771 328.744C303.666 329.046 303.498 329.322 303.279 329.554C303.059 329.786 302.794 329.969 302.499 330.091C302.204 330.213 301.886 330.272 301.567 330.262H301.51ZM150.091 85.0434C149.809 85.0343 149.529 85.084 149.267 85.1893C149.006 85.2946 148.769 85.4532 148.573 85.6551C148.384 85.8642 148.239 86.1096 148.147 86.3764C148.056 86.6431 148.02 86.9256 148.04 87.2069L160.41 327.215C160.473 327.951 160.802 328.637 161.336 329.146C161.87 329.655 162.572 329.952 163.309 329.979H301.499C301.779 329.99 302.059 329.941 302.318 329.836C302.578 329.73 302.812 329.571 303.006 329.368C303.199 329.161 303.347 328.917 303.439 328.649C303.531 328.381 303.564 328.097 303.538 327.816L291.18 87.8072C291.12 87.0731 290.793 86.3865 290.26 85.8773C289.728 85.368 289.028 85.0714 288.292 85.0434H150.091Z" fill="white"/>
<path opacity="0.3" d="M253.174 172.234C268.892 156.105 267.868 129.616 250.888 113.069C233.908 96.5221 207.401 96.1831 191.684 112.312C175.966 128.441 176.99 154.93 193.97 171.477C210.95 188.024 237.457 188.363 253.174 172.234Z" fill="white"/>
<path d="M256.315 142.279C256.632 147.845 255.513 153.4 253.065 158.409C250.414 163.781 246.3 168.296 241.196 171.432C236.091 174.568 230.205 176.199 224.215 176.135C218.007 176.08 211.919 174.418 206.544 171.311C201.168 168.205 196.689 163.76 193.541 158.409C190.607 153.515 188.919 147.977 188.625 142.279C188.346 137.909 188.971 133.529 190.463 129.412C191.954 125.295 194.279 121.531 197.292 118.354C200.306 115.177 203.942 112.656 207.974 110.949C212.006 109.242 216.348 108.386 220.726 108.434C229.839 108.529 238.577 112.073 245.18 118.353C251.784 124.633 255.763 133.183 256.315 142.279Z" fill="white"/>
<path d="M253.03 158.409C250.38 163.781 246.266 168.296 241.162 171.432C236.057 174.568 230.171 176.199 224.18 176.135C217.972 176.08 211.885 174.418 206.509 171.311C201.134 168.205 196.655 163.76 193.507 158.409C202.114 152.464 212.338 149.301 222.799 149.347C233.539 149.387 244.038 152.535 253.03 158.409Z" fill="#03A879"/>
<path d="M232.922 141.492C238.585 135.681 238.214 126.136 232.094 120.172C225.974 114.208 216.422 114.084 210.759 119.894C205.097 125.705 205.467 135.251 211.587 141.215C217.707 147.179 227.259 147.303 232.922 141.492Z" fill="#03A879"/>
<path d="M281.699 242.399H173.492C172.55 242.389 171.646 242.022 170.963 241.373C170.28 240.723 169.868 239.839 169.811 238.898L168.995 223.041C168.967 222.59 169.033 222.137 169.187 221.713C169.342 221.288 169.582 220.9 169.894 220.572C170.205 220.245 170.581 219.985 170.998 219.81C171.414 219.634 171.862 219.546 172.314 219.552H280.521C281.462 219.561 282.364 219.926 283.047 220.573C283.73 221.22 284.143 222.102 284.203 223.041L285.018 238.898C285.048 239.35 284.984 239.804 284.83 240.23C284.676 240.656 284.436 241.045 284.124 241.374C283.812 241.703 283.436 241.964 283.019 242.14C282.602 242.316 282.152 242.404 281.699 242.399Z" fill="white"/>
<path opacity="0.3" d="M248.568 210.796H203.373C202.426 210.789 201.518 210.422 200.833 209.77C200.147 209.118 199.735 208.23 199.68 207.285L199.51 203.887C199.481 203.435 199.545 202.981 199.699 202.555C199.852 202.129 200.093 201.74 200.404 201.411C200.716 201.082 201.092 200.822 201.51 200.645C201.927 200.469 202.376 200.381 202.829 200.387H248.013C248.955 200.396 249.859 200.763 250.542 201.412C251.225 202.062 251.637 202.946 251.694 203.887L251.875 207.285C251.903 207.736 251.838 208.188 251.684 208.613C251.531 209.038 251.291 209.427 250.982 209.756C250.672 210.086 250.297 210.348 249.882 210.526C249.467 210.705 249.02 210.797 248.568 210.796Z" fill="black"/>
<path opacity="0.3" d="M265.377 318.641H197.675C196.072 318.621 194.536 317.996 193.374 316.891C192.212 315.786 191.511 314.283 191.411 312.683L191.015 304.867C190.975 304.099 191.092 303.331 191.359 302.609C191.625 301.888 192.036 301.228 192.566 300.671C193.096 300.113 193.734 299.67 194.441 299.367C195.148 299.064 195.909 298.908 196.679 298.909H264.358C265.961 298.929 267.497 299.554 268.659 300.659C269.82 301.764 270.521 303.267 270.621 304.867L271.018 312.683C271.058 313.449 270.942 314.215 270.676 314.935C270.411 315.655 270.002 316.314 269.475 316.871C268.947 317.428 268.312 317.872 267.608 318.177C266.903 318.481 266.144 318.639 265.377 318.641Z" fill="black"/>
<path d="M283.681 280.752H175.463C174.521 280.74 173.619 280.372 172.936 279.723C172.254 279.074 171.841 278.192 171.782 277.252L170.966 261.394C170.938 260.942 171.003 260.49 171.158 260.065C171.312 259.639 171.553 259.25 171.864 258.922C172.175 258.594 172.551 258.333 172.967 258.156C173.384 257.979 173.832 257.89 174.285 257.894H282.492C283.435 257.904 284.338 258.27 285.021 258.92C285.704 259.569 286.116 260.453 286.173 261.394L287 277.252C287.027 277.703 286.96 278.155 286.805 278.58C286.65 279.004 286.409 279.392 286.098 279.72C285.787 280.048 285.412 280.309 284.997 280.487C284.581 280.664 284.133 280.754 283.681 280.752Z" fill="white"/>
<path d="M187.22 230.97C187.252 231.47 187.179 231.972 187.008 232.443C186.836 232.914 186.569 233.345 186.224 233.709C185.879 234.072 185.462 234.361 185 234.556C184.538 234.751 184.041 234.849 183.539 234.843C182.497 234.831 181.499 234.425 180.744 233.706C179.99 232.987 179.536 232.01 179.473 230.97C179.44 230.47 179.511 229.968 179.681 229.497C179.851 229.026 180.117 228.595 180.461 228.231C180.806 227.867 181.222 227.578 181.683 227.383C182.145 227.188 182.642 227.09 183.143 227.096C184.186 227.108 185.185 227.514 185.942 228.232C186.698 228.951 187.155 229.929 187.22 230.97Z" fill="#263238"/>
<path d="M199.148 230.97C199.181 231.47 199.11 231.971 198.94 232.442C198.769 232.913 198.504 233.345 198.159 233.708C197.815 234.072 197.398 234.361 196.937 234.556C196.476 234.751 195.979 234.849 195.478 234.843C194.435 234.834 193.435 234.428 192.68 233.709C191.925 232.99 191.472 232.011 191.411 230.97C191.379 230.47 191.449 229.968 191.62 229.497C191.79 229.026 192.055 228.595 192.4 228.231C192.745 227.867 193.161 227.578 193.622 227.383C194.083 227.188 194.58 227.09 195.081 227.096C196.124 227.105 197.124 227.511 197.879 228.23C198.634 228.949 199.087 229.929 199.148 230.97Z" fill="#263238"/>
<path d="M211.007 230.97C211.04 231.47 210.969 231.971 210.799 232.442C210.629 232.913 210.363 233.345 210.019 233.708C209.674 234.072 209.258 234.361 208.796 234.556C208.335 234.751 207.838 234.849 207.337 234.843C206.294 234.831 205.294 234.425 204.538 233.707C203.782 232.988 203.325 232.011 203.259 230.97C203.228 230.469 203.301 229.967 203.472 229.496C203.644 229.025 203.91 228.594 204.256 228.23C204.601 227.867 205.018 227.578 205.48 227.383C205.942 227.188 206.439 227.09 206.941 227.096C207.983 227.108 208.981 227.515 209.736 228.233C210.49 228.952 210.944 229.93 211.007 230.97Z" fill="#263238"/>
<path d="M222.957 230.97C222.988 231.469 222.916 231.97 222.745 232.44C222.575 232.911 222.309 233.341 221.965 233.705C221.62 234.068 221.205 234.357 220.744 234.553C220.284 234.749 219.788 234.848 219.287 234.843C218.244 234.831 217.244 234.425 216.488 233.707C215.732 232.988 215.275 232.011 215.209 230.97C215.178 230.47 215.25 229.969 215.421 229.499C215.592 229.028 215.858 228.598 216.202 228.235C216.546 227.871 216.962 227.583 217.422 227.387C217.883 227.191 218.379 227.092 218.879 227.096C219.922 227.108 220.922 227.514 221.679 228.232C222.435 228.951 222.891 229.929 222.957 230.97Z" fill="#263238"/>
<path d="M189.225 269.3C189.258 269.8 189.187 270.302 189.017 270.773C188.847 271.244 188.581 271.675 188.237 272.039C187.892 272.403 187.476 272.691 187.015 272.887C186.553 273.082 186.057 273.18 185.555 273.174C184.512 273.162 183.513 272.756 182.756 272.037C182 271.319 181.543 270.341 181.478 269.3C181.447 268.8 181.519 268.298 181.69 267.827C181.862 267.355 182.129 266.925 182.474 266.561C182.82 266.197 183.236 265.909 183.698 265.714C184.16 265.519 184.658 265.421 185.159 265.426C186.201 265.439 187.199 265.845 187.954 266.564C188.708 267.283 189.163 268.26 189.225 269.3Z" fill="#263238"/>
<path d="M201.13 269.3C201.161 269.8 201.089 270.301 200.918 270.771C200.748 271.242 200.482 271.672 200.138 272.035C199.793 272.399 199.378 272.687 198.917 272.883C198.457 273.079 197.961 273.178 197.46 273.174C196.417 273.162 195.417 272.756 194.661 272.037C193.905 271.319 193.448 270.341 193.382 269.3C193.35 268.8 193.42 268.299 193.591 267.828C193.761 267.356 194.026 266.925 194.371 266.562C194.716 266.198 195.132 265.909 195.593 265.714C196.054 265.519 196.551 265.421 197.052 265.426C198.095 265.439 199.095 265.845 199.851 266.563C200.608 267.281 201.064 268.259 201.13 269.3Z" fill="#263238"/>
<path d="M213.035 269.3C213.066 269.801 212.994 270.302 212.822 270.774C212.651 271.245 212.384 271.676 212.038 272.04C211.693 272.403 211.276 272.691 210.814 272.887C210.352 273.082 209.855 273.18 209.354 273.174C208.311 273.164 207.311 272.759 206.556 272.04C205.801 271.32 205.347 270.341 205.287 269.3C205.254 268.8 205.325 268.299 205.495 267.828C205.665 267.356 205.931 266.925 206.276 266.562C206.62 266.198 207.036 265.909 207.498 265.714C207.959 265.519 208.456 265.421 208.957 265.426C210 265.439 211 265.845 211.756 266.563C212.512 267.281 212.969 268.259 213.035 269.3Z" fill="#263238"/>
<path d="M224.928 269.3C224.961 269.8 224.89 270.302 224.72 270.773C224.55 271.244 224.284 271.675 223.939 272.039C223.595 272.403 223.179 272.691 222.717 272.887C222.256 273.082 221.759 273.18 221.258 273.174C220.215 273.162 219.215 272.756 218.459 272.037C217.703 271.319 217.246 270.341 217.18 269.3C217.149 268.8 217.222 268.298 217.393 267.827C217.564 267.355 217.831 266.925 218.177 266.561C218.522 266.197 218.939 265.909 219.401 265.714C219.863 265.519 220.36 265.421 220.862 265.426C221.904 265.436 222.904 265.842 223.659 266.561C224.414 267.28 224.868 268.259 224.928 269.3Z" fill="#263238"/>
<path d="M236.833 269.3C236.866 269.8 236.795 270.302 236.625 270.773C236.455 271.244 236.189 271.675 235.844 272.039C235.5 272.403 235.084 272.691 234.622 272.887C234.161 273.082 233.664 273.18 233.163 273.174C232.12 273.162 231.12 272.756 230.364 272.037C229.608 271.319 229.151 270.341 229.085 269.3C229.054 268.801 229.126 268.3 229.297 267.829C229.468 267.359 229.733 266.929 230.078 266.565C230.422 266.202 230.837 265.913 231.298 265.717C231.759 265.521 232.255 265.422 232.755 265.426C233.798 265.439 234.798 265.845 235.554 266.563C236.31 267.281 236.767 268.259 236.833 269.3Z" fill="#263238"/>
<path d="M248.737 269.3C248.769 269.801 248.696 270.302 248.525 270.774C248.353 271.245 248.087 271.676 247.741 272.04C247.396 272.403 246.979 272.691 246.517 272.887C246.055 273.082 245.558 273.18 245.056 273.174C244.014 273.162 243.016 272.755 242.261 272.037C241.507 271.318 241.053 270.34 240.99 269.3C240.957 268.8 241.028 268.299 241.198 267.828C241.368 267.356 241.634 266.925 241.978 266.562C242.323 266.198 242.739 265.909 243.2 265.714C243.662 265.519 244.159 265.421 244.66 265.426C245.703 265.439 246.703 265.845 247.459 266.563C248.215 267.281 248.672 268.259 248.737 269.3Z" fill="#263238"/>
<path d="M377.515 137.759C377.798 138.19 377.945 138.416 378.126 138.722L378.636 139.56C378.965 140.127 379.259 140.693 379.542 141.248C380.109 142.381 380.675 143.514 381.128 144.646C382.078 146.896 382.894 149.199 383.575 151.544C384.946 156.177 385.849 160.936 386.27 165.749L386.35 166.643C386.359 166.824 386.359 167.006 386.35 167.187V167.787C386.369 168.575 386.323 169.363 386.214 170.143C385.997 171.59 385.617 173.007 385.081 174.368C384.086 176.8 382.768 179.086 381.162 181.165C378.167 185 374.612 188.364 370.617 191.144L367.49 187.485C370.335 184.272 372.854 180.785 375.011 177.076C375.982 175.393 376.743 173.597 377.277 171.729C377.493 170.938 377.618 170.125 377.651 169.305C377.685 168.955 377.685 168.602 377.651 168.252V168.014C377.662 167.909 377.662 167.802 377.651 167.697L377.515 166.904C376.786 162.682 375.757 158.519 374.434 154.444C373.777 152.417 372.973 150.457 372.168 148.543C371.772 147.58 371.319 146.64 370.866 145.734L370.163 144.397L369.812 143.774L369.518 143.276L377.515 137.759Z" fill="#803E3C"/>
<path d="M366.98 191.166L371.081 199.832L374.332 192.503C374.332 192.503 371.443 186.16 367.535 186.749L366.98 191.166Z" fill="#7F3E3B"/>
<path d="M374.014 200.262L377.276 194.916L374.331 192.503L371.081 199.832L374.014 200.262Z" fill="#7F3E3B"/>
<path d="M355.574 400.094C356.422 400.072 357.266 399.958 358.089 399.754C358.131 399.741 358.168 399.718 358.198 399.686C358.228 399.654 358.249 399.615 358.259 399.573C358.266 399.529 358.26 399.484 358.242 399.444C358.223 399.404 358.194 399.37 358.157 399.346C357.828 399.131 354.951 397.273 353.841 397.772C353.718 397.829 353.613 397.918 353.535 398.029C353.457 398.141 353.411 398.271 353.399 398.406C353.365 398.611 353.381 398.821 353.446 399.018C353.511 399.216 353.624 399.394 353.773 399.539C354.287 399.935 354.927 400.132 355.574 400.094ZM357.443 399.425C355.801 399.765 354.555 399.708 354.045 399.267C353.941 399.163 353.865 399.036 353.823 398.895C353.782 398.755 353.776 398.606 353.807 398.463C353.807 398.27 353.92 398.213 354 398.179C354.611 397.908 356.276 398.712 357.443 399.425Z" fill="#03A879"/>
<path d="M358.032 399.754H358.145C358.179 399.732 358.208 399.701 358.227 399.666C358.247 399.63 358.258 399.59 358.259 399.55C358.259 399.436 358.259 396.707 357.217 395.789C357.089 395.674 356.937 395.588 356.773 395.538C356.609 395.487 356.436 395.472 356.265 395.495C356.086 395.496 355.914 395.559 355.776 395.672C355.638 395.785 355.542 395.943 355.506 396.118C355.291 397.194 357.013 399.233 357.919 399.754H358.032ZM356.412 395.914C356.504 395.911 356.595 395.927 356.681 395.96C356.767 395.993 356.845 396.043 356.911 396.106C357.508 396.987 357.817 398.032 357.794 399.097C356.888 398.372 355.812 396.831 355.948 396.186C355.948 396.084 356.027 395.948 356.31 395.914H356.412Z" fill="#03A879"/>
<path d="M344.881 395.472C344.908 395.439 344.925 395.399 344.931 395.357C344.937 395.315 344.932 395.272 344.916 395.233C344.899 395.194 344.873 395.159 344.839 395.134C344.805 395.108 344.765 395.092 344.723 395.087C344.258 395.087 340.192 394.895 339.263 395.891V395.959C339.186 396.057 339.136 396.174 339.118 396.297C339.101 396.42 339.115 396.546 339.161 396.662C339.222 396.856 339.328 397.033 339.472 397.177C339.616 397.321 339.793 397.428 339.988 397.488C341.302 397.896 343.624 396.412 344.892 395.495L344.881 395.472ZM339.603 396.186C340.112 395.642 342.355 395.495 344.032 395.518C342.276 396.718 340.815 397.285 340.078 397.058C339.95 397.019 339.833 396.949 339.739 396.854C339.644 396.759 339.574 396.643 339.535 396.514C339.512 396.471 339.5 396.422 339.5 396.373C339.5 396.323 339.512 396.275 339.535 396.231L339.603 396.186Z" fill="#03A879"/>
<path d="M344.881 395.472C344.898 395.437 344.907 395.398 344.907 395.359C344.907 395.32 344.898 395.281 344.881 395.246C344.825 395.155 343.556 392.98 342.061 392.527C341.846 392.464 341.621 392.446 341.399 392.473C341.177 392.5 340.963 392.573 340.77 392.686C340.226 393.003 340.192 393.377 340.26 393.615C340.554 394.668 343.443 395.597 344.689 395.585C344.728 395.585 344.766 395.574 344.8 395.554C344.834 395.534 344.862 395.506 344.881 395.472ZM340.815 393.207C340.879 393.144 340.951 393.091 341.03 393.048C341.17 392.959 341.328 392.902 341.492 392.88C341.656 392.859 341.824 392.874 341.982 392.924C342.967 393.184 343.885 394.453 344.304 395.076C342.956 394.929 340.906 394.102 340.736 393.467C340.721 393.419 340.721 393.368 340.735 393.32C340.749 393.271 340.777 393.228 340.815 393.196V393.207Z" fill="#03A879"/>
<path d="M357.352 104.583C356.22 110.246 353.773 122.491 357.703 126.251C357.703 126.251 356.163 131.915 345.708 131.915C334.2 131.915 340.215 126.251 340.215 126.251C346.49 124.756 346.331 120.089 345.232 115.717L357.352 104.583Z" fill="#7F3E3B"/>
<path d="M338.187 91.3073C338.251 91.3176 338.316 91.3176 338.38 91.3073C338.433 91.2808 338.481 91.2439 338.521 91.1987C338.56 91.1535 338.59 91.1009 338.609 91.044C338.628 90.9871 338.636 90.927 338.631 90.8672C338.627 90.8074 338.611 90.7491 338.584 90.6956C338.279 90.0495 337.824 89.4859 337.256 89.0523C336.688 88.6186 336.025 88.3276 335.321 88.2036C335.203 88.1938 335.086 88.2293 334.993 88.303C334.901 88.3767 334.84 88.483 334.823 88.6001C334.81 88.7186 334.845 88.8374 334.919 88.9307C334.993 89.024 335.101 89.0843 335.219 89.0985C335.775 89.2051 336.297 89.4426 336.742 89.7913C337.187 90.1399 337.543 90.5897 337.779 91.1034C337.823 91.1704 337.884 91.2245 337.956 91.2603C338.027 91.2962 338.107 91.3123 338.187 91.3073Z" fill="#263238"/>
<path d="M334.755 96.2799C333.863 97.9334 332.751 99.4577 331.448 100.811C331.8 101.134 332.219 101.376 332.675 101.52C333.131 101.665 333.612 101.709 334.087 101.649L334.755 96.2799Z" fill="#630F0F"/>
<path d="M335.604 94.9999C335.514 95.7589 335.027 96.3252 334.54 96.2686C334.053 96.212 333.713 95.5436 333.803 94.7847C333.894 94.0258 334.381 93.4595 334.936 93.5161C335.491 93.5727 335.684 94.241 335.604 94.9999Z" fill="#263238"/>
<path d="M335.083 93.584L333.339 92.8817C333.339 92.8817 334.075 94.3769 335.083 93.584Z" fill="#263238"/>
<path d="M354.883 393.32L345.64 395.472L340.022 374.223L349.265 372.071L354.883 393.32Z" fill="#7F3E3B"/>
<path d="M369.065 399.527H359.584L360.32 377.564H369.812L369.065 399.527Z" fill="#7F3E3B"/>
<path d="M358.825 398.428H369.484C369.668 398.427 369.847 398.493 369.987 398.614C370.127 398.735 370.218 398.902 370.242 399.085L371.454 407.513C371.478 407.726 371.457 407.942 371.392 408.146C371.326 408.35 371.218 408.538 371.075 408.698C370.931 408.857 370.756 408.984 370.56 409.071C370.363 409.158 370.151 409.202 369.937 409.201C366.221 409.144 364.432 408.917 359.742 408.917C356.854 408.917 352.64 409.223 348.664 409.223C344.689 409.223 344.462 405.281 346.127 404.93C353.558 403.322 354.736 401.124 357.239 399.017C357.681 398.64 358.243 398.431 358.825 398.428Z" fill="#263238"/>
<path d="M344.825 394.056L354.509 389.605C354.674 389.526 354.861 389.511 355.036 389.561C355.212 389.611 355.362 389.723 355.461 389.877L360.093 397.035C360.202 397.219 360.27 397.424 360.294 397.637C360.318 397.849 360.298 398.064 360.234 398.268C360.17 398.472 360.064 398.66 359.922 398.82C359.781 398.98 359.608 399.109 359.414 399.199C356.016 400.694 354.294 401.249 350.035 403.208C347.419 404.409 342.106 407.173 338.504 408.872C334.902 410.571 333.045 407.048 334.404 406.029C340.486 401.498 342.231 398.247 343.624 395.291C343.86 394.746 344.287 394.307 344.825 394.056Z" fill="#263238"/>
<path opacity="0.2" d="M340.022 374.223L343.035 385.618L352.165 383.024L349.276 372.071L340.022 374.223Z" fill="black"/>
<path opacity="0.2" d="M369.812 377.564H360.32L359.946 388.891H369.438L369.812 377.564Z" fill="black"/>
<path d="M374.116 128.403C378.058 129.275 382.272 143.446 382.272 143.446L371.126 155.305C371.126 155.305 361.872 141.984 363.764 137.091C365.678 131.983 369.416 127.384 374.116 128.403Z" fill="#263238"/>
<path opacity="0.4" d="M367.819 137.431C365.825 135.607 364.477 136.151 363.56 137.601C362.653 141.814 368.022 150.638 370.186 153.98C371.183 149.993 372.327 141.588 367.819 137.431Z" fill="black"/>
<path d="M324.176 128.686C324.176 128.686 319.645 130.272 328.706 185.945H367.218C366.573 170.268 366.55 160.595 374.015 128.403C368.618 127.29 363.148 126.571 357.647 126.251C351.825 125.832 345.98 125.832 340.158 126.251C332.694 126.942 324.176 128.686 324.176 128.686Z" fill="#263238"/>
<path opacity="0.4" d="M323.824 150.049C324.074 152.756 324.402 155.803 324.833 159.247C327.993 156.404 330.575 148.316 329.624 143.604C327.366 145.437 325.409 147.611 323.824 150.049Z" fill="black"/>
<path d="M327.947 141.588C325.869 146.818 323.529 151.941 320.936 156.936C318.373 162.112 315.339 167.041 311.874 171.661L311.149 172.556L310.787 172.998C310.662 173.145 310.56 173.281 310.368 173.485C309.686 174.229 308.927 174.897 308.102 175.478C306.645 176.487 305.051 177.28 303.368 177.834C300.432 178.772 297.385 179.313 294.306 179.443C288.54 179.672 282.769 179.158 277.134 177.914L277.757 173.156C280.362 173.156 283.092 173.156 285.686 172.941C288.291 172.813 290.886 172.526 293.457 172.08C295.844 171.708 298.178 171.054 300.411 170.132C301.313 169.747 302.156 169.236 302.915 168.614C303.204 168.372 303.466 168.098 303.696 167.799C303.696 167.799 303.832 167.617 303.923 167.493L304.183 167.119L304.716 166.372C307.558 161.981 310.09 157.398 312.293 152.654C314.559 147.84 316.824 142.845 318.897 137.929L327.947 141.588Z" fill="#803E3C"/>
<path d="M324.175 128.686C319.452 129.819 313.653 142.777 313.653 142.777L323.439 157.163C323.439 157.163 336.477 140.75 334.925 135.743C333.339 130.521 329.941 127.282 324.175 128.686Z" fill="#263238"/>
<path d="M280.476 173.881L272.309 170.109L271.493 178.231C271.493 178.231 278.29 180.236 281.688 178.231L280.476 173.881Z" fill="#7F3E3B"/>
<path d="M267.427 169.294L266.646 175.478L271.493 178.231L272.309 170.109L267.427 169.294Z" fill="#7F3E3B"/>
<path d="M361.453 95.5548C359.72 104.809 359.188 108.773 353.887 112.976C345.958 119.296 334.914 115.151 333.849 105.568C332.875 96.9367 335.865 83.2537 345.459 80.6485C347.573 80.0654 349.8 80.0335 351.929 80.5557C354.058 81.0779 356.018 82.1369 357.622 83.6316C359.226 85.1263 360.42 87.007 361.091 89.0942C361.761 91.1815 361.886 93.4057 361.453 95.5548Z" fill="#7F3E3B"/>
<path d="M341.121 97.5031C340.588 102.226 340.384 114.494 350.76 114.879C363.458 115.343 367.263 104.492 366.131 100.154C372.746 94.7732 373.697 85.5191 366.267 78.4397C358.836 71.3603 342.48 75.3134 337.949 82.2116C332.206 90.7635 341.121 97.5031 341.121 97.5031Z" fill="#263238"/>
<path d="M353.841 81.1921C353.229 76.2082 353.705 72.7761 358.372 72.7761C363.039 72.7761 369.404 74.4638 371.738 79.2325C374.071 84.0012 374.264 91.4657 367.751 90.7068C361.238 89.9479 354.577 87.1501 353.841 81.1921Z" fill="#03A879"/>
<path d="M361.068 79.9915C359.935 74.0561 365.247 57.3374 378.149 56.2047C384.13 55.695 386.893 62.1288 383.812 63.1935C389.476 63.1255 393.101 70.6127 387.822 71.7341C391.991 74.4073 390.96 79.8896 385.013 82.5854C380.584 84.6243 362.597 88.2149 361.068 79.9915Z" fill="#263238"/>
<path d="M374.853 86.3686C370.696 86.3686 366.357 85.7569 363.662 83.9559C362.908 83.5015 362.273 82.8741 361.81 82.1256C361.347 81.377 361.07 80.529 361 79.6516C360.996 79.5772 361.021 79.5042 361.07 79.4474C361.118 79.3907 361.186 79.3543 361.26 79.3458C361.298 79.3411 361.336 79.3442 361.372 79.355C361.408 79.3658 361.442 79.384 361.471 79.4086C361.5 79.4331 361.523 79.4633 361.539 79.4974C361.556 79.5314 361.565 79.5685 361.566 79.6063C361.634 80.398 361.888 81.1625 362.308 81.8376C362.727 82.5126 363.299 83.0793 363.979 83.4915C369.11 86.8896 380.969 85.7569 384.662 84.6242C387.856 83.5821 390.02 81.5546 390.45 79.2212C390.584 78.365 390.479 77.4883 390.145 76.6885C389.811 75.8887 389.262 75.197 388.558 74.6904C388.531 74.665 388.51 74.6343 388.495 74.6002C388.48 74.5661 388.473 74.5293 388.473 74.4922C388.473 74.455 388.48 74.4183 388.495 74.3842C388.51 74.3501 388.531 74.3194 388.558 74.294C388.611 74.2421 388.683 74.213 388.757 74.213C388.831 74.213 388.902 74.2421 388.955 74.294C389.746 74.8709 390.36 75.6562 390.73 76.5624C391.1 77.4685 391.211 78.4596 391.05 79.4251C390.586 81.9737 388.287 84.1485 384.889 85.2585C381.61 86.085 378.233 86.4585 374.853 86.3686Z" fill="#263238"/>
<path d="M338.232 96.2798C337.178 97.7594 336.743 99.5926 337.02 101.388C337.394 103.767 339.705 103.926 341.381 102.408C343.058 100.89 344.519 98.1488 343.284 96.1779C343.01 95.7522 342.631 95.4037 342.184 95.1658C341.737 94.9278 341.236 94.8083 340.73 94.8185C340.223 94.8287 339.728 94.9683 339.291 95.2241C338.854 95.4799 338.489 95.8434 338.232 96.2798Z" fill="#7F3E3B"/>
<path d="M338.878 185.945C338.878 185.945 344.383 251.064 350.103 287.763C354.713 317.406 358.36 386.694 358.36 386.694H371.296C371.296 386.694 375.895 319.479 373.561 290.165C367.637 215.973 380.856 209.924 367.252 185.956L338.878 185.945Z" fill="#03A879"/>
<path opacity="0.4" d="M355.166 210.558C350.04 215.939 345.902 222.181 342.944 228.999C344.451 243.633 346.24 259.876 348.143 274.103C355.952 253.888 358.372 231.991 355.166 210.558Z" fill="black"/>
<path d="M329.828 185.537C329.828 185.537 317.878 256.659 315.997 288.715C320.687 318.358 339.875 381.019 339.875 381.019L351.644 376.749C351.644 376.749 345.13 308.424 338.051 289.723C353.988 236.067 365.7 222.497 362.291 185.945C354.124 185.945 329.828 185.537 329.828 185.537Z" fill="#03A879"/>
<path d="M338.3 384.145L354.203 379.829L353.297 373.486L336.273 378.096L338.3 384.145Z" fill="#263238"/>
<path d="M356.582 386.954H373.063L373.924 381.177L356.492 380.588L356.582 386.954Z" fill="#263238"/>
<path d="M367.819 183.679L369.552 187.134C369.687 187.406 369.37 187.678 368.929 187.678H328.514C328.174 187.678 327.879 187.508 327.857 187.281L327.506 183.883C327.506 183.645 327.789 183.441 328.163 183.441H367.184C367.301 183.425 367.421 183.439 367.531 183.48C367.642 183.522 367.741 183.59 367.819 183.679Z" fill="#03A879"/>
<path opacity="0.5" d="M367.819 183.679L369.552 187.134C369.687 187.406 369.37 187.678 368.929 187.678H328.514C328.174 187.678 327.879 187.508 327.857 187.281L327.506 183.883C327.506 183.645 327.789 183.441 328.163 183.441H367.184C367.301 183.425 367.421 183.439 367.531 183.48C367.642 183.522 367.741 183.59 367.819 183.679Z" fill="black"/>
<path d="M362.574 188.029H363.616C363.831 188.029 363.99 187.915 363.979 187.791L363.48 183.26C363.48 183.124 363.288 183.022 363.084 183.022H362.03C361.827 183.022 361.668 183.124 361.679 183.26L362.166 187.791C362.189 187.938 362.37 188.029 362.574 188.029Z" fill="#03A879"/>
<path d="M348.551 155.044C348.426 155.042 348.305 155.001 348.205 154.925C348.106 154.85 348.032 154.745 347.996 154.625C344.304 140.965 336.669 129.706 332.965 128.007C332.677 127.83 332.332 127.773 332.003 127.848C331.934 127.884 331.859 127.906 331.782 127.912C331.705 127.918 331.627 127.908 331.554 127.883C331.481 127.858 331.414 127.818 331.357 127.766C331.3 127.713 331.254 127.65 331.222 127.58C331.19 127.509 331.173 127.433 331.172 127.356C331.171 127.278 331.186 127.202 331.215 127.13C331.245 127.059 331.289 126.994 331.344 126.94C331.4 126.887 331.466 126.845 331.538 126.817C331.848 126.704 332.178 126.659 332.507 126.686C332.836 126.714 333.155 126.813 333.441 126.976C337.36 128.834 345.108 139.934 348.982 153.9C351.757 153.9 356.038 153.527 357.081 153.436C358.372 151.895 367.864 140.025 364.319 127.033C364.298 126.961 364.292 126.886 364.301 126.813C364.31 126.739 364.334 126.668 364.371 126.603C364.408 126.539 364.457 126.482 364.516 126.438C364.575 126.393 364.643 126.36 364.715 126.342C364.859 126.303 365.013 126.324 365.142 126.398C365.271 126.472 365.366 126.594 365.406 126.738C369.359 141.191 357.896 154.229 357.772 154.353C357.727 154.408 357.672 154.454 357.61 154.487C357.548 154.52 357.479 154.54 357.409 154.546C357.352 154.546 351.7 155.044 348.551 155.044Z" fill="#03A879"/>
<path d="M367.32 163.041C361.147 151.476 358.621 150.661 357.522 146.946C358.355 144.868 359.543 142.952 361.034 141.282C360.286 141.067 358.678 140.75 357.636 140.557C357.749 140.048 357.874 139.549 357.987 139.062C356.853 138.935 355.706 138.989 354.589 139.221V138.088C353.15 137.775 351.672 137.679 350.205 137.805C350.334 138.341 350.458 138.885 350.579 139.436C349.446 139.651 347.724 140.002 346.898 140.24C348.504 142.06 349.685 144.215 350.352 146.549C347.022 152.269 334.087 189.037 355.132 191.857C376.178 194.678 373.482 174.618 367.32 163.041Z" fill="#03A879"/>
<path opacity="0.4" d="M367.32 163.041C361.147 151.476 358.621 150.661 357.522 146.946C358.355 144.868 359.543 142.952 361.034 141.282C360.286 141.067 358.678 140.75 357.636 140.557C357.749 140.048 357.874 139.549 357.987 139.062C356.853 138.935 355.706 138.989 354.589 139.221V138.088C353.15 137.775 351.672 137.679 350.205 137.805C350.334 138.341 350.458 138.885 350.579 139.436C349.446 139.651 347.724 140.002 346.898 140.24C348.504 142.06 349.685 144.215 350.352 146.549C347.022 152.269 334.087 189.037 355.132 191.857C376.178 194.678 373.482 174.618 367.32 163.041Z" fill="white"/>
<path d="M349.492 145.451C349.361 146.034 349.303 146.631 349.322 147.229C349.322 147.648 350.454 147.931 351.712 148.056C352.969 148.18 358.247 148.384 358.077 147.795C357.908 147.206 358.338 146.402 358.361 145.904C358.383 145.405 356.265 145.383 354.487 145.451C352.708 145.518 349.843 144.816 349.492 145.451Z" fill="#03A879"/>
<path d="M337.247 188.029H338.289C338.493 188.029 338.651 187.915 338.64 187.791L338.153 183.26C338.153 183.124 337.961 183.022 337.745 183.022H336.737C336.533 183.022 336.375 183.124 336.386 183.26L336.873 187.791C336.85 187.938 337.032 188.029 337.247 188.029Z" fill="#03A879"/>
</svg>
